<?xml version="1.0" standalone="no"?>
<!DOCTYPE svg PUBLIC "-//W3C//DTD SVG 1.1//EN" "http://www.w3.org/Graphics/SVG/1.1/DTD/svg11.dtd" >
<svg>
<metadata>
Created by FontForge 20090622 at Mon Apr 23 07:34:40 2018
 By deploy user
Im Wunderland &#194;&#169; Chequered Ink Ltd. 2018. All Rights Reserved
</metadata>
<defs>
<font id="ImWunderland" horiz-adv-x="606" >
  <font-face 
    font-family="Im Wunderland"
    font-weight="400"
    font-stretch="normal"
    units-per-em="2048"
    panose-1="2 0 5 0 0 0 0 0 0 0"
    ascent="1638"
    descent="-410"
    x-height="874"
    cap-height="1433"
    bbox="-111 -300 1012 1716"
    underline-thickness="150"
    underline-position="-142"
    unicode-range="U+001D-U+2212"
  />
<missing-glyph horiz-adv-x="715" 
d="M43 1483h521q42 -4 42 -35l10 -1443q-8 -35 -35 -35q-546 12 -546 18q-19 15 -19 31l-16 1429q0 31 43 35zM70 1413l16 -1359q10 -2 12 -2l448 -10l-10 1371h-466z" />
    <glyph glyph-name=".notdef" horiz-adv-x="715" 
d="M43 1483h521q42 -4 42 -35l10 -1443q-8 -35 -35 -35q-546 12 -546 18q-19 15 -19 31l-16 1429q0 31 43 35zM70 1413l16 -1359q10 -2 12 -2l448 -10l-10 1371h-466z" />
    <glyph glyph-name=".null" horiz-adv-x="0" 
 />
    <glyph glyph-name=".null" horiz-adv-x="0" 
 />
    <glyph glyph-name="nonmarkingreturn" horiz-adv-x="508" 
 />
    <glyph glyph-name="space" unicode=" " horiz-adv-x="508" 
 />
    <glyph glyph-name="space" unicode="&#xa0;" horiz-adv-x="508" 
 />
    <glyph glyph-name="exclam" unicode="!" horiz-adv-x="190" 
d="M35 1431q35 -8 35 -35l4 -1222q-8 -36 -35 -36q-35 9 -35 36l-4 1222q8 35 35 35zM45 84q32 0 39 -41q-8 -43 -43 -43q-39 8 -39 39q10 45 43 45z" />
    <glyph glyph-name="quotedbl" unicode="&#x22;" horiz-adv-x="316" 
d="M35 1430q29 0 35 -39q2 -141 2 -174q-7 -37 -35 -37q-29 0 -35 39q-2 153 -2 174q7 37 35 37zM175 1430q29 0 35 -39q2 -141 2 -174q-7 -37 -35 -37q-29 0 -35 39q-2 153 -2 174q7 37 35 37z" />
    <glyph glyph-name="numbersign" unicode="#" horiz-adv-x="714" 
d="M532 1431q28 0 35 -37l-50 -444h56q43 -4 43 -35q0 -32 -43 -36h-41q-25 0 -25 -9l-41 -359q16 0 68 4q35 -8 35 -35q0 -39 -83 -39q-3 0 -28 -2q-45 -395 -50 -418q-15 -19 -32 -19q-28 0 -35 37l45 394q-15 0 -212 -16q-34 -401 -41 -401q-15 -15 -30 -16q-28 0 -35 37
q33 355 33 374h-2q-11 0 -64 -3q-35 8 -35 35q0 39 84 39q24 2 25 2q35 371 35 390h-2q-32 -2 -50 -2h-30q-42 4 -42 35t42 35h2q29 0 88 2q39 445 45 460q15 20 31 20q28 0 35 -38l-41 -442q55 2 223 4q50 439 56 464q15 19 31 19zM216 874q-23 -241 -35 -385h2
q213 13 213 20l41 369h-2z" />
    <glyph glyph-name="dollar" unicode="$" horiz-adv-x="715" 
d="M308 1516q31 0 35 -43v-39h2q74 0 187 -35q17 -17 18 -32q-8 -35 -35 -35q-111 31 -172 32v-564l115 -78q170 -131 170 -359v-15q0 -242 -191 -316q-30 -14 -94 -26v-23q-4 -43 -35 -43t-35 43v17h-2q-190 0 -216 38q-6 12 -6 17q0 28 37 35q68 -19 187 -19v682l-127 78
q-146 103 -146 260v13q0 96 57 201q56 83 167 117q32 8 45 8h4v43q4 43 35 43zM70 1098v-2q0 -149 154 -232q37 -25 47 -25h2v521q-44 0 -113 -45q-43 -28 -70 -104q-20 -67 -20 -113zM343 714v-636h2q98 19 146 67q67 66 67 208v4q0 166 -88 260q-54 56 -103 84
q-19 13 -20 13h-4z" />
    <glyph glyph-name="percent" unicode="%" horiz-adv-x="754" 
d="M546 1433q28 0 35 -37q-419 -1257 -466 -1382q-15 -14 -27 -14q-28 0 -35 37q419 1257 466 1383q15 13 27 13zM144 1297q89 0 110 -223q1 -17 1 -44q0 -239 -103 -287q-18 -8 -33 -8h-2q-84 0 -111 137q-6 38 -6 70q0 219 88 327q31 28 56 28zM138 1223q-68 -94 -68 -283
q9 -135 45 -135h4q34 0 57 106q9 44 9 121q0 115 -37 189zM548 700q69 0 101 -170q6 -59 6 -113v-7q0 -138 -54 -225q-40 -47 -82 -47h-2q-89 0 -113 153q-4 26 -4 56v8q0 191 80 310q31 35 68 35zM470 349q6 -140 49 -140q31 0 54 93q12 57 12 115q0 152 -41 211h-2
q-30 -24 -54 -119q-18 -85 -18 -160z" />
    <glyph glyph-name="ampersand" unicode="&#x26;" horiz-adv-x="742" 
d="M343 1433h4q153 0 193 -253q4 -16 4 -80v-4q0 -109 -111 -234q-113 -106 -113 -109v-2q56 -191 125 -375h2q23 42 99 266q12 66 45 66q28 0 35 -37q-43 -161 -133 -361q-2 0 -13 -27q19 -57 87 -230v-2q-8 -35 -35 -35q-32 0 -56 83q-36 88 -43 100q-126 -199 -252 -199
h-11q-57 0 -117 53q-53 58 -53 202q0 291 176 459l64 64q-70 254 -70 353v51q0 111 74 201q54 50 99 50zM240 1176v-39q0 -96 58 -304h4q172 145 172 269q0 197 -92 253q-12 8 -35 8q-50 0 -90 -90q-17 -56 -17 -97zM70 254q0 -140 51 -168q33 -16 53 -16h2q105 0 214 193
q12 17 12 26q-59 156 -141 409h-4q-75 -72 -109 -127q-78 -126 -78 -317z" />
    <glyph glyph-name="quotesingle" unicode="'" horiz-adv-x="175" 
d="M35 1430q29 0 35 -39q2 -141 2 -174q-7 -37 -35 -37q-29 0 -35 39q-2 153 -2 174q7 37 35 37z" />
    <glyph glyph-name="parenleft" unicode="(" horiz-adv-x="407" 
d="M304 1468q35 -9 35 -35q0 -16 -50 -73q-97 -137 -149 -263l-42 -140q-28 -138 -28 -213v-27q0 -357 224 -700q2 -10 2 -12q-8 -35 -35 -35q-28 0 -70 84q-58 93 -101 205q-90 236 -90 452v39q0 155 76 372q53 128 142 262q63 84 86 84z" />
    <glyph glyph-name="parenright" unicode=")" horiz-adv-x="383" 
d="M47 1462q29 0 66 -86q160 -333 160 -682q0 -383 -203 -691q-19 -23 -35 -23q-28 0 -35 37q0 11 47 76q156 276 156 603q0 328 -152 653q-32 54 -39 78q8 35 35 35z" />
    <glyph glyph-name="asterisk" unicode="*" horiz-adv-x="546" 
d="M230 1432q35 -8 35 -35l-15 -125h2q4 0 144 76l10 2q35 -8 35 -35q0 -28 -76 -60q0 -4 -100 -55v-6q98 -91 98 -101q0 -1 2 -8q-8 -35 -35 -35q-18 0 -82 66q-45 45 -51 45q-151 -84 -162 -84q-35 8 -35 35q0 29 76 61l66 39v4q-103 98 -103 105l-2 10q8 35 35 35
q20 0 80 -66q20 -18 27 -18q14 144 34 144q12 6 17 6z" />
    <glyph glyph-name="plus" unicode="+" horiz-adv-x="603" 
d="M248 943q31 0 35 -43v-167h167q43 -4 43 -35t-43 -35h-167v-170q-4 -43 -35 -43t-35 43v170h-170q-43 4 -43 35t43 35h170v167q4 43 35 43z" />
    <glyph glyph-name="comma" unicode="," horiz-adv-x="182" 
d="M35 130q29 0 35 -39q2 -141 2 -174q-7 -37 -35 -37q-29 0 -35 39q-2 153 -2 174q7 37 35 37z" />
    <glyph glyph-name="hyphen" unicode="-" horiz-adv-x="609" 
d="M43 630h407q43 -4 43 -35t-43 -35h-407q-43 4 -43 35t43 35z" />
    <glyph glyph-name="hyphen" unicode="&#xad;" horiz-adv-x="609" 
d="M43 630h407q43 -4 43 -35t-43 -35h-407q-43 4 -43 35t43 35z" />
    <glyph glyph-name="period" unicode="." horiz-adv-x="190" 
d="M43 84q32 0 39 -41q-8 -43 -43 -43q-39 8 -39 39q10 45 43 45z" />
    <glyph glyph-name="slash" unicode="/" horiz-adv-x="395" 
d="M246 1439q28 0 35 -37q-207 -1352 -215 -1382q-9 -18 -31 -20q-28 0 -35 37q207 1352 215 1383q14 19 31 19z" />
    <glyph glyph-name="zero" unicode="0" horiz-adv-x="722" 
d="M355 1433h4q99 0 166 -97q34 -44 52 -145q41 -197 41 -602q0 -266 -43 -417q-33 -91 -113 -137q-58 -35 -129 -35q-104 0 -183 78q-64 55 -99 205q-51 205 -51 493q0 300 86 480q15 35 86 105q93 72 183 72zM70 770q0 -312 67 -540q60 -160 198 -160q115 0 170 113
q41 136 41 357q2 0 2 55q0 515 -68 684q-47 84 -125 84q-111 0 -201 -127q-84 -163 -84 -466z" />
    <glyph glyph-name="one" unicode="1" horiz-adv-x="427" 
d="M250 1433h4q36 0 48 -35q12 -61 12 -290q0 -386 -16 -1069q-5 -39 -35 -39q-31 0 -35 43q16 683 16 1065q0 103 -6 249q-24 0 -193 -103l-10 -2q-35 8 -35 35q0 29 101 80q110 66 149 66z" />
    <glyph glyph-name="two" unicode="2" horiz-adv-x="719" 
d="M345 1433q141 0 240 -132q31 -64 31 -115v-14q0 -272 -431 -901q-85 -124 -111 -183q34 -18 156 -18q92 0 298 18q36 -8 36 -35q0 -39 -84 -39q-147 -14 -256 -14q-185 0 -216 53q-8 17 -8 31q0 43 193 322q353 538 353 764v10q0 130 -158 179q-23 4 -45 4
q-99 0 -216 -101q-12 -6 -18 -6q-35 8 -35 35q0 35 131 107q71 35 140 35z" />
    <glyph glyph-name="three" unicode="3" horiz-adv-x="734" 
d="M248 1433q206 0 300 -140q43 -81 43 -162q0 -128 -123 -228l-64 -43v-2q212 -88 212 -466q0 -271 -201 -363q-74 -29 -171 -29q-110 0 -228 43q-15 14 -16 29q0 28 37 35q116 -37 211 -37q209 0 269 156q29 78 29 172q0 314 -158 392q-46 17 -90 17h-5q-36 0 -67 -7
q-35 8 -35 35q0 35 78 46q96 32 152 73q98 75 98 171v16q0 145 -139 201q-66 21 -138 21q-81 0 -170 -19q-35 8 -35 35q0 35 68 43q58 11 143 11z" />
    <glyph glyph-name="four" unicode="4" horiz-adv-x="726" 
d="M80 1433q28 0 35 -37q-45 -589 -45 -803v-39q0 -53 4 -94q44 -11 168 -11h88q53 0 142 3v2q0 140 -10 929q8 35 35 35q35 -8 35 -35q10 -791 10 -923q2 -6 4 -6q12 0 35 2q35 -8 35 -35q0 -37 -60 -37h-12q0 -21 4 -349q-8 -35 -35 -35q-35 8 -35 35q-4 321 -4 347
q-82 -4 -139 -4h-99q-217 0 -220 41q-16 18 -16 129v51q0 214 45 803q11 31 35 31z" />
    <glyph glyph-name="five" unicode="5" horiz-adv-x="729" 
d="M581 1433q35 -8 35 -35q-8 -35 -35 -35l-511 -8v-388q54 6 61 6h39q158 0 280 -99q160 -149 160 -441q0 -92 -41 -195q-60 -131 -202 -193q-110 -45 -227 -45h-17q-76 0 -76 25q-3 0 -4 12q9 35 33 35q37 -2 62 -2q120 0 229 51q98 49 148 164q17 52 25 148
q-5 335 -203 433q-78 37 -173 37h-27q-21 0 -102 -14q-31 0 -35 43v451q4 42 35 42z" />
    <glyph glyph-name="six" unicode="6" horiz-adv-x="719" 
d="M363 1433q35 -8 35 -35q0 -28 -66 -52q-68 -43 -125 -127q-49 -73 -86 -195q-43 -156 -43 -279q105 31 179 31h28q224 0 298 -210q33 -100 33 -197v-12q0 -130 -84 -246q-92 -111 -210 -111q-79 0 -156 60q-166 145 -166 533v41q0 352 131 595q25 50 121 146
q86 58 111 58zM70 599q0 -390 160 -500q46 -29 94 -29q108 0 187 133q35 89 35 160q0 179 -88 284q-63 48 -115 53q-15 6 -64 6h-16q-100 -2 -193 -39v-68z" />
    <glyph glyph-name="seven" unicode="7" horiz-adv-x="714" 
d="M273 1433q332 0 332 -35q11 -8 11 -29q-34 -140 -269 -807q-187 -537 -197 -550q-15 -12 -25 -12q-28 0 -35 37l435 1260q11 41 15 49q0 17 -271 17q-159 0 -236 -4q-24 0 -33 35q0 32 47 37q151 2 226 2z" />
    <glyph glyph-name="eight" unicode="8" horiz-adv-x="719" 
d="M267 1433q163 0 287 -140q58 -94 58 -156v-37q0 -84 -66 -183q-80 -84 -164 -116q-3 -3 -45 -19v-4q72 -50 174 -154q105 -128 105 -287v-5q0 -220 -166 -309q-60 -23 -95 -23h-22q-90 0 -189 78q-88 78 -121 213q-17 68 -17 134q0 261 187 363l4 6q-116 104 -142 154
q-55 100 -55 189v31q0 95 66 181q81 84 201 84zM70 1162v-19q0 -176 199 -314h4q153 62 203 113q66 79 66 164v25q0 83 -88 166q-91 66 -189 66q-130 0 -179 -115q-16 -48 -16 -86zM76 425q0 -180 111 -294q79 -61 152 -61h10q84 0 146 78q51 72 51 187q0 191 -174 326
q-20 19 -109 84h-2q-115 -51 -158 -152q-27 -75 -27 -168z" />
    <glyph glyph-name="nine" unicode="9" horiz-adv-x="717" 
d="M294 1433q80 0 156 -60q166 -145 166 -533v-40q0 -352 -130 -595q-26 -51 -121 -146q-87 -59 -111 -59q-36 8 -36 35q0 28 67 53q67 42 125 127q48 73 85 195q43 155 43 278q-105 -31 -179 -31h-27q-225 0 -299 211q-33 99 -33 197v11q0 130 84 246q92 111 210 111z
M70 1071q0 -180 88 -285q63 -47 115 -53q16 -6 64 -6h16q94 0 193 39v69q0 389 -160 499q-46 29 -93 29q-109 0 -188 -133q-35 -88 -35 -159z" />
    <glyph glyph-name="colon" unicode=":" horiz-adv-x="194" 
d="M43 584q32 0 39 -41q-8 -43 -43 -43q-39 8 -39 39q10 45 43 45zM43 84q32 0 39 -41q-8 -43 -43 -43q-39 8 -39 39q10 45 43 45z" />
    <glyph glyph-name="semicolon" unicode=";" horiz-adv-x="202" 
d="M45 130q29 0 35 -39q2 -141 2 -174q-7 -37 -35 -37q-29 0 -35 39q-2 153 -2 174q7 37 35 37zM43 584q32 0 39 -41q-8 -43 -43 -43q-39 8 -39 39q10 45 43 45z" />
    <glyph glyph-name="semicolon" unicode="&#x37e;" horiz-adv-x="202" 
d="M45 130q29 0 35 -39q2 -141 2 -174q-7 -37 -35 -37q-29 0 -35 39q-2 153 -2 174q7 37 35 37zM43 584q32 0 39 -41q-8 -43 -43 -43q-39 8 -39 39q10 45 43 45z" />
    <glyph glyph-name="less" unicode="&#x3c;" horiz-adv-x="601" 
d="M464 1131q35 -8 35 -35q0 -20 -64 -72q-186 -163 -347 -320v-4q75 -43 368 -166q14 -14 16 -29q0 -28 -37 -35q-222 88 -390 174q-45 23 -45 50t84 102q129 125 363 329q12 6 17 6z" />
    <glyph glyph-name="equal" unicode="=" horiz-adv-x="601" 
d="M43 829h407q43 -4 43 -35t-43 -35h-407q-43 4 -43 35t43 35zM35 646l429 -6q35 -8 35 -35q-8 -35 -35 -35q-12 0 -429 6q-35 8 -35 35q8 35 35 35z" />
    <glyph glyph-name="greater" unicode="&#x3e;" 
d="M35 1067q18 0 180 -119q115 -78 263 -207q21 -25 21 -45q0 -39 -127 -109q-27 -21 -280 -162q-50 -25 -57 -25q-35 8 -35 35q0 30 84 64q222 124 326 194q0 1 7 7q-38 41 -167 137l-242 173q-6 10 -8 22q8 35 35 35z" />
    <glyph glyph-name="question" unicode="?" horiz-adv-x="700" 
d="M41 1429q188 0 367 -82q187 -101 187 -290q0 -206 -168 -341q-66 -59 -273 -137q-16 0 -16 -95v-2q0 -108 18 -322q-8 -35 -35 -35q-41 0 -41 97q-12 178 -12 266q0 124 35 144q34 17 158 64q68 33 137 84q127 111 127 279q0 195 -252 265q-70 25 -242 37q-24 0 -31 33
q0 31 41 35zM129 84q32 0 39 -41q-8 -43 -43 -43q-39 8 -39 39q10 45 43 45z" />
    <glyph glyph-name="at" unicode="@" horiz-adv-x="861" 
d="M421 1449h14q137 0 230 -141q107 -160 107 -454v-31q0 -404 -91 -500q-34 -33 -69 -33q-77 0 -136 110q-12 26 -22 78h-2q-39 -83 -105 -108q-21 -6 -31 -6h-2q-144 0 -144 279v26q0 139 46 300q55 138 139 138q75 0 146 -93q27 -30 27 -55v-10l-9 -257v-45
q0 -230 41 -249q25 -37 54 -37q19 0 45 64q43 121 43 404v19q0 396 -185 511q-39 19 -88 19h-2q-85 0 -181 -105q-115 -149 -152 -372q-24 -132 -24 -322q0 -208 80 -369q56 -95 154 -132q58 -18 92 -18q78 0 148 22q35 -8 35 -35q0 -43 -127 -55q-22 -2 -58 -2h-2
q-84 0 -181 57q-117 74 -172 255q-39 138 -39 279q0 357 94 569q89 207 243 279q38 14 84 20zM240 663v-14q0 -168 47 -209q7 -5 27 -5q68 0 115 199q18 59 27 300v21q-53 82 -101 82q-59 0 -98 -193q-17 -124 -17 -181z" />
    <glyph glyph-name="A" unicode="A" horiz-adv-x="715" 
d="M326 1425q73 0 123 -241q54 -209 122 -757q12 -74 45 -392q0 -31 -35 -35q-41 0 -41 98q-41 360 -68 551q-320 -10 -320 -13q-60 -383 -84 -607q-5 -20 -33 -23q-34 4 -35 43q55 467 113 764q55 321 121 513q42 99 92 99zM320 1344q-24 -35 -63 -184q-35 -121 -91 -450
q51 0 294 10v2q-58 424 -123 600q-9 22 -13 22h-4z" />
    <glyph glyph-name="B" unicode="B" horiz-adv-x="702" 
d="M152 1433q244 0 316 -189q20 -59 20 -131q0 -248 -190 -372v-4q97 -17 191 -103q117 -125 117 -330v-11q0 -174 -177 -250q-95 -43 -250 -43q-115 0 -115 20q-12 0 -33 397q-31 455 -31 695q0 238 31 288q16 31 74 31q4 0 47 2zM70 1112q8 -309 12 -365q111 0 224 86
q111 98 111 282q0 248 -267 248q-64 0 -64 -12q-16 -87 -16 -239zM86 673q25 -450 39 -601q41 -2 49 -2q362 0 362 228q0 314 -261 373q-69 12 -103 12q-54 0 -86 -10z" />
    <glyph glyph-name="C" unicode="C" horiz-adv-x="702" 
d="M353 1433h14q79 0 142 -48q6 -10 8 -22q-8 -35 -35 -35q-5 0 -53 23q-29 12 -68 12h-2q-96 0 -172 -136q-39 -78 -64 -180q-53 -250 -53 -450v-57q0 -366 148 -448q28 -16 80 -22q116 0 258 92q10 4 13 4q36 -8 36 -35q0 -39 -166 -106q-72 -25 -143 -25q-77 0 -156 62
q-140 126 -140 472v69q0 196 51 440q31 130 70 207q64 125 166 170q48 13 66 13z" />
    <glyph glyph-name="D" unicode="D" horiz-adv-x="734" 
d="M76 1433h2q170 0 324 -125q85 -81 107 -128q119 -203 119 -492q0 -508 -289 -649q-95 -39 -154 -39h-31q-100 0 -129 51q-25 94 -25 659q0 710 35 710q16 13 41 13zM90 1363q-12 -82 -18 -374q0 -77 -2 -281q4 -628 24 -628q28 -10 66 -10h19q78 0 168 53
q211 134 211 563q0 247 -96 441l-62 88q-90 87 -146 107q-51 29 -164 41z" />
    <glyph glyph-name="E" unicode="E" horiz-adv-x="722" 
d="M513 1433q39 -6 39 -35q0 -31 -43 -35q-353 0 -425 -31q-14 -139 -14 -476v-109h2q27 0 357 17q35 -8 35 -35q0 -37 -70 -37q-301 -15 -322 -17v-98q0 -234 22 -491q0 -16 52 -16h35q121 0 400 26q35 -9 35 -36q0 -39 -80 -39q-227 -21 -359 -21q-119 0 -134 25
q-43 21 -43 862q0 494 31 494q33 52 482 52z" />
    <glyph glyph-name="F" unicode="F" horiz-adv-x="717" 
d="M464 1433q141 0 141 -11q11 -15 11 -26q-9 -35 -33 -35q-85 2 -129 2q-372 0 -372 -17q-12 -75 -12 -355v-219q56 2 457 8q35 -8 35 -35q-9 -35 -35 -35q-382 -6 -455 -8v-16q0 -265 12 -651q-8 -35 -35 -35q-37 0 -37 70q-10 395 -10 611v41q0 7 -2 17q0 2 2 2
q-2 23 -2 33v222q0 389 20 389q16 33 50 33q33 15 394 15z" />
    <glyph glyph-name="G" unicode="G" horiz-adv-x="717" 
d="M367 1433h5q124 0 233 -80l5 -19q0 -28 -37 -35q-4 0 -87 43q-58 21 -117 21q-134 0 -219 -189q-80 -214 -80 -536q0 -445 187 -542q53 -26 104 -26q96 0 185 45l-10 573q-4 0 -4 2l-4 -2q-54 0 -218 -4q-35 9 -35 36q0 35 58 35q36 2 238 6q35 -9 35 -36l10 -631
q0 -51 -203 -92q-31 -2 -56 -2q-93 0 -185 68q-172 148 -172 570v6q0 323 82 546q63 162 191 224q60 19 94 19z" />
    <glyph glyph-name="H" unicode="H" horiz-adv-x="724" 
d="M55 1433q35 -8 35 -35l-10 -659h466v636q4 43 35 43q29 0 35 -39q0 -303 -2 -1334q-7 -37 -35 -37q-31 0 -35 43v618h-464q0 -9 -2 -45q0 -80 -8 -589q-8 -35 -35 -35q-35 8 -35 35l20 1363q8 35 35 35z" />
    <glyph glyph-name="I" unicode="I" horiz-adv-x="217" 
d="M35 1433q35 -8 35 -35q0 -230 4 -1363q-8 -35 -35 -35q-35 8 -35 35q0 231 -4 1363q8 35 35 35z" />
    <glyph glyph-name="J" unicode="J" horiz-adv-x="729" 
d="M564 1433q41 0 41 -97q11 -159 11 -371q0 -486 -105 -750q-96 -215 -259 -215h-20q-70 0 -136 49q-61 46 -88 164q-8 56 -8 72v25q0 68 21 68q0 3 16 6q35 -9 35 -33q-2 -35 -2 -57v-3q0 -77 37 -153q48 -68 131 -68h8q144 0 212 207q30 64 55 218q33 212 33 476
q0 250 -18 427q9 35 36 35z" />
    <glyph glyph-name="K" unicode="K" horiz-adv-x="717" 
d="M35 1433q31 0 35 -43v-598h2l470 626q11 8 24 9q35 -8 35 -35q0 -16 -88 -128q-404 -541 -408 -548l509 -669l2 -12q-8 -35 -35 -35q-25 0 -86 92l-419 548h-6v-597q-4 -43 -35 -43t-35 43v1347q4 43 35 43z" />
    <glyph glyph-name="L" unicode="L" horiz-adv-x="714" 
d="M51 1433q35 -8 35 -35q-16 -546 -16 -963q2 -355 18 -355q41 -10 132 -10q150 0 361 16q35 -8 35 -35q0 -39 -84 -39q-176 -12 -317 -12q-173 0 -190 41q-18 5 -25 275v123q0 421 16 963q11 31 35 31z" />
    <glyph glyph-name="M" unicode="M" horiz-adv-x="874" 
d="M657 1429q48 0 59 -130q37 -348 56 -1266q0 -24 -35 -33q-37 0 -37 70q0 324 -39 1053q-2 11 -14 152h-3q-73 -263 -197 -916q-15 -123 -45 -123l-8 -2q-36 0 -49 84q-187 678 -271 924h-2q-2 -29 -2 -43v-97q0 -510 28 -1063q-9 -35 -36 -35q-37 0 -37 70
q-24 536 -25 1022v35q0 277 25 277q10 12 26 12q44 0 82 -135q91 -268 253 -852h2q114 586 199 897q28 99 70 99z" />
    <glyph glyph-name="N" unicode="N" horiz-adv-x="714" 
d="M57 1433q40 0 80 -136q71 -206 241 -759l113 -343q17 -41 22 -45q8 0 21 408q8 184 12 721v86q4 43 35 43t35 -43v-92q0 -629 -29 -1111q-16 -137 -35 -137q0 -8 -27 -13q-45 0 -98 160q-80 225 -328 1025q-22 62 -25 63v-2q-4 -179 -4 -265q0 -395 12 -954
q-6 -39 -35 -39q-31 0 -35 41q-12 546 -12 957q3 408 20 408q12 27 37 27z" />
    <glyph glyph-name="O" unicode="O" horiz-adv-x="724" 
d="M332 1433q172 0 245 -218q39 -170 39 -534q0 -215 -35 -429q-26 -117 -93 -176q-87 -76 -194 -76q-116 0 -195 101q-99 132 -99 566v2q0 334 82 571q40 115 133 164q59 29 117 29zM70 665q0 -326 63 -488q57 -107 163 -107q115 0 186 107q20 38 35 112q29 213 29 397
q0 540 -88 613q-47 64 -130 64q-102 0 -164 -105q-28 -61 -51 -160q-43 -206 -43 -433z" />
    <glyph glyph-name="P" unicode="P" horiz-adv-x="722" 
d="M199 1431q161 0 281 -99q136 -125 136 -353v-12q0 -251 -208 -364q-125 -63 -285 -63q-5 0 -53 2v-15q0 -400 8 -494q0 -24 -35 -33q-37 0 -37 66q-6 89 -6 455v95q0 784 37 784q35 31 162 31zM72 614q0 -2 53 -4q317 8 396 213q25 65 25 150q0 290 -216 367
q-72 21 -135 21q-105 0 -105 -19q-18 -129 -18 -728z" />
    <glyph glyph-name="Q" unicode="Q" horiz-adv-x="717" 
d="M322 1433q116 0 195 -101q99 -132 99 -566v-2q0 -334 -82 -571q-12 -34 -29 -64v-2q0 -5 37 -68q4 -10 4 -14q-8 -35 -35 -35q-24 0 -55 56q-83 -66 -171 -66q-173 0 -246 218q-39 171 -39 535q0 215 35 429q26 117 94 175q86 76 193 76zM70 747q0 -540 88 -612
q47 -65 131 -65q69 0 130 59v2q-117 195 -121 212q8 35 35 35q28 0 63 -74q29 -45 60 -101h4q32 60 53 181q33 187 33 384q0 326 -62 488q-58 107 -164 107q-115 0 -185 -107q-21 -38 -36 -111q-29 -214 -29 -398z" />
    <glyph glyph-name="R" unicode="R" horiz-adv-x="719" 
d="M187 1433q173 0 308 -115q92 -90 111 -205q10 -53 10 -89q0 -213 -140 -338q-122 -105 -273 -136q-57 -13 -57 -16v-2q400 -448 416 -470l2 -11q-9 -35 -36 -35q-21 0 -74 68l-374 417h-2q8 -272 16 -466q-9 -35 -35 -35q-38 0 -38 70q-21 575 -21 1018q0 253 21 297
q27 48 166 48zM70 1082q0 -273 6 -483q77 0 232 58q64 30 131 88q107 101 107 283q0 126 -82 226q-118 109 -281 109q-103 0 -103 -25q-10 -107 -10 -256z" />
    <glyph glyph-name="S" unicode="S" horiz-adv-x="722" 
d="M326 1433h7q91 0 199 -35q17 -17 18 -31q-8 -35 -35 -35q-106 31 -187 31q-170 0 -230 -129q-28 -80 -28 -136v-2q0 -149 154 -232q69 -42 166 -94q65 -44 115 -89q123 -124 123 -318v-16q0 -242 -193 -318q-85 -29 -168 -29q-185 0 -212 37q-6 12 -6 18q0 28 37 35
q70 -20 183 -20q142 0 228 80q31 38 47 82q14 70 14 121v4q0 172 -96 267q-13 18 -60 53q-79 55 -150 89q-86 47 -153 102q-99 94 -99 222v14q0 96 57 201q92 128 269 128z" />
    <glyph glyph-name="T" unicode="T" horiz-adv-x="719" 
d="M43 1433h530q43 -4 43 -35t-43 -35h-238q2 -625 2 -1037v-283q-4 -43 -35 -43t-35 43v267q0 415 -2 1053h-222q-43 4 -43 35t43 35z" />
    <glyph glyph-name="U" unicode="U" horiz-adv-x="719" 
d="M45 1433q35 -8 35 -35q-10 -251 -10 -470v-8q0 -652 76 -750q64 -100 164 -100q127 0 191 164q45 131 45 618v6q0 211 -14 532q8 35 35 35q38 0 38 -70q11 -303 11 -491v-18q0 -599 -74 -688q-37 -86 -134 -137q-53 -21 -102 -21q-132 0 -222 138q-46 87 -53 172
q-31 183 -31 605v19q3 484 16 484q14 14 29 15z" />
    <glyph glyph-name="V" unicode="V" horiz-adv-x="709" 
d="M35 1425q39 0 39 -81q70 -650 158 -1079q39 -155 61 -183q28 28 79 230q85 362 172 1037q0 71 37 71q31 0 35 -41q-37 -346 -70 -509q-64 -428 -138 -698l-37 -98q-40 -74 -77 -74q-70 0 -111 183q-76 239 -179 1166q-4 32 -4 41q8 35 35 35z" />
    <glyph glyph-name="W" unicode="W" horiz-adv-x="874" 
d="M35 1433q37 0 37 -70q24 -840 47 -1121q2 -2 6 -63h2q6 0 37 149l156 731q28 140 66 140h4q42 0 57 -89q33 -150 113 -665q37 -206 62 -297h4q41 345 76 1254q11 31 35 31q28 0 35 -37q-31 -809 -72 -1238q-10 -67 -23 -121q-21 -31 -43 -31q-63 0 -107 244
q-47 233 -129 756l-8 31h-2q-33 -133 -148 -692q-70 -343 -111 -343q-2 0 -12 -2q-42 0 -53 86q-33 220 -64 1312q8 35 35 35z" />
    <glyph glyph-name="X" unicode="X" horiz-adv-x="709" 
d="M70 1433q32 0 55 -82q2 -1 183 -477h2q8 11 205 540q15 19 31 19q28 0 35 -37l-232 -626q259 -676 267 -704q-8 -35 -35 -35q-32 0 -54 82l-215 556h-2q-236 -630 -248 -655q-15 -14 -27 -14q-28 0 -35 37l273 735q-230 597 -238 626q8 35 35 35z" />
    <glyph glyph-name="Y" unicode="Y" horiz-adv-x="712" 
d="M581 1416q28 0 35 -37q-11 -39 -296 -757l10 -587q-9 -35 -36 -35q-35 8 -35 35l-9 597q-238 688 -250 731q8 35 35 35q34 0 53 -84l199 -577h6q247 641 263 667q15 12 25 12z" />
    <glyph glyph-name="Z" unicode="Z" horiz-adv-x="702" 
d="M581 1433q28 0 35 -37q-25 -65 -275 -653q-152 -363 -263 -657q0 -8 -2 -8q2 -4 2 -6q34 -2 43 -2q132 0 431 33q35 -8 35 -35q0 -39 -84 -39q-222 -29 -384 -29q-96 0 -111 29q-8 13 -8 30q0 44 261 672l266 628v4q-29 -2 -32 -2q-78 0 -349 -4q-35 8 -35 35q8 35 35 35
z" />
    <glyph glyph-name="bracketleft" unicode="[" horiz-adv-x="302" 
d="M47 1449h93q43 -4 43 -35q0 -32 -43 -36h-66l-4 -1316h2q17 0 59 2q37 -7 37 -35q0 -37 -70 -37q-17 0 -63 -2q-35 8 -35 35q1 220 4 1389q0 31 43 35z" />
    <glyph glyph-name="backslash" unicode="\" horiz-adv-x="502" 
d="M35 1420q36 0 49 -88l329 -1297q-8 -35 -35 -35q-36 0 -48 88q-300 1172 -330 1297q8 35 35 35z" />
    <glyph glyph-name="bracketright" unicode="]" horiz-adv-x="299" 
d="M70 1449q125 -5 129 -43l-27 -1377q0 -37 -71 -37q-16 0 -66 -2q-35 8 -35 35q0 37 70 37h31q24 1111 26 1287l2 24q-90 4 -90 27q-4 10 -4 14q8 35 35 35z" />
    <glyph glyph-name="asciicircum" unicode="^" horiz-adv-x="598" 
d="M246 1432q41 0 95 -152q10 -13 123 -320q35 -97 35 -105q-8 -35 -35 -35q-32 0 -53 82q-126 347 -165 425q-9 -8 -76 -189l-108 -297q-15 -13 -27 -13q-28 0 -35 37q90 273 191 517q27 50 55 50z" />
    <glyph glyph-name="underscore" unicode="_" horiz-adv-x="717" 
d="M43 70h530q43 -4 43 -35t-43 -35h-530q-43 4 -43 35t43 35z" />
    <glyph glyph-name="grave" unicode="`" horiz-adv-x="302" 
d="M35 1418q25 0 92 -93q54 -63 54 -90q0 -28 -37 -35q-26 0 -39 41l-101 129q-4 10 -4 13q8 35 35 35z" />
    <glyph glyph-name="a" unicode="a" 
d="M255 881q103 0 225 -146q5 0 19 -675q-8 -35 -35 -35q-35 0 -35 59q-2 19 -4 158q-5 0 -29 -72q-63 -128 -148 -158q-40 -12 -61 -12h-10q-118 0 -163 176q-14 75 -14 156q0 244 82 419q69 130 173 130zM70 328q4 -212 76 -250q17 -8 39 -8q169 0 219 451q9 113 9 187
q-92 103 -159 103q-112 0 -166 -277q-18 -118 -18 -206z" />
    <glyph glyph-name="b" unicode="b" horiz-adv-x="601" 
d="M39 1433q24 0 35 -31q-2 -60 -2 -84q0 -145 -2 -499h2q94 39 166 39h2q176 0 236 -189q23 -84 23 -193q-2 -346 -212 -445q-68 -31 -139 -31h-21q-102 11 -102 29q-25 0 -25 552v64q0 220 2 712q0 72 25 72q0 3 12 4zM70 741v-39q0 -626 16 -626q39 -6 47 -6h9
q194 0 262 205q25 91 25 203q0 218 -92 283q-31 27 -99 27q-71 0 -168 -47z" />
    <glyph glyph-name="c" unicode="c" horiz-adv-x="598" 
d="M421 881h14q64 0 64 -37q-9 -35 -33 -35q-30 2 -45 2q-229 -7 -308 -199q-43 -95 -43 -243q0 -299 213 -299q63 0 160 33q35 -8 35 -35q0 -41 -133 -62q-26 -6 -64 -6q-185 0 -254 183q-27 73 -27 188q0 373 267 483q77 27 154 27z" />
    <glyph glyph-name="d" unicode="d" horiz-adv-x="603" 
d="M460 1433q35 -8 35 -35q0 -230 4 -1363q-8 -35 -35 -35q-23 0 -33 27q-91 -21 -140 -21q-205 0 -271 203q-20 65 -20 175q0 154 59 295q31 69 91 124q90 69 187 69h12q44 0 78 -8v2q-2 294 -2 476v48q4 43 35 43zM70 380q0 -211 98 -271q47 -33 125 -33q53 0 136 25
q-2 435 -2 677v14q-33 9 -84 9q-204 0 -259 -276q-8 -45 -14 -145z" />
    <glyph glyph-name="e" unicode="e" horiz-adv-x="601" 
d="M224 874h18q90 0 175 -104q61 -92 80 -204l2 -24v-10q0 -39 -37 -52q-112 -20 -337 -30q-30 -1 -55 -1v-55q0 -152 70 -259q53 -65 129 -65q77 0 154 86l16 4q28 0 35 -37q0 -41 -129 -109q-33 -14 -80 -14q-126 0 -206 135q-59 123 -59 253v45q0 135 60 294
q71 147 164 147zM78 519h2q240 11 347 25q0 4 2 4q-19 95 -37 127q-64 128 -156 128h-8q-88 0 -140 -228q-10 -42 -10 -56z" />
    <glyph glyph-name="f" unicode="f" horiz-adv-x="596" 
d="M277 1293h8q102 0 210 -119q4 -10 4 -14q-8 -35 -35 -35q-15 0 -70 53q-65 45 -111 45h-2q-98 0 -125 -242q-14 -91 -14 -127h2l277 6q35 -8 35 -35q0 -35 -58 -35q-52 -2 -261 -6q-12 -163 -12 -425v-119q0 -40 4 -201q-6 -39 -35 -39q-31 0 -35 41q-4 146 -4 193v131
q0 272 11 417h-23q-43 4 -43 35t43 35h27q20 202 39 260q9 74 80 146q48 35 88 35z" />
    <glyph glyph-name="g" unicode="g" horiz-adv-x="601" 
d="M275 873h6q104 0 203 -137q15 0 15 -347q0 -372 -56 -454q-11 -43 -90 -119q-65 -55 -158 -76q-37 7 -37 35q0 33 72 47q189 79 189 339v4h-2q-52 -119 -136 -152q-32 -12 -51 -12h-19q-116 0 -176 133q-35 93 -35 203q0 359 197 511q53 25 78 25zM70 335q6 -188 78 -242
q26 -21 68 -21h14q40 0 84 52q35 44 58 125q51 160 51 439q0 31 -76 93q-35 22 -68 22q-83 0 -168 -189q-41 -125 -41 -279z" />
    <glyph glyph-name="h" unicode="h" horiz-adv-x="601" 
d="M39 1433q31 0 35 -43v-7q0 -199 -2 -546h4q51 42 109 42q111 0 211 -109q103 -155 103 -452v-8q0 -169 -17 -281q-15 -23 -33 -23q-36 8 -36 35q16 126 16 275q0 230 -66 376q-47 85 -137 111q-25 6 -45 6q-66 0 -109 -97q-2 -541 -2 -675q-7 -37 -35 -37q-35 8 -35 35
q4 1133 4 1363q8 35 35 35z" />
    <glyph glyph-name="i" unicode="i" horiz-adv-x="214" 
d="M43 1012q32 0 39 -41q-11 -43 -43 -43q-39 8 -39 39q10 45 43 45zM45 874q35 -9 35 -35l4 -804q-8 -35 -35 -35q-35 8 -35 35l-4 804q8 35 35 35z" />
    <glyph glyph-name="j" unicode="j" horiz-adv-x="531" 
d="M355 1033q32 0 39 -41q-11 -43 -43 -43q-39 8 -39 39q10 45 43 45zM351 877q35 0 35 -59q2 -33 2 -64q0 -670 -33 -739q-35 -120 -144 -197q-54 -40 -143 -70l-31 -8q-37 7 -37 35q0 34 72 47q145 59 197 164q25 41 35 138q14 313 14 624q-2 73 -2 96q0 24 35 33z" />
    <glyph glyph-name="k" unicode="k" horiz-adv-x="597" 
d="M35 1433q28 0 35 -37q2 -796 4 -799q333 263 363 281q1 0 12 1q35 -8 35 -35q0 -23 -73 -70l-304 -242l390 -479l2 -12q-8 -35 -35 -35q-23 0 -74 72l-316 382h-2q2 -135 2 -205v-212q-4 -43 -35 -43q-35 8 -35 35q0 231 -4 1363q8 35 35 35z" />
    <glyph glyph-name="l" unicode="l" horiz-adv-x="199" 
d="M49 1433q35 -8 35 -35l-14 -1363q-8 -35 -35 -35q-35 8 -35 35l14 1363q8 35 35 35z" />
    <glyph glyph-name="m" unicode="m" horiz-adv-x="869" 
d="M35 874q31 0 35 -43v-2h4q48 45 111 45q74 0 147 -55q14 -12 33 -33h2q64 88 150 88q85 0 164 -71q87 -91 87 -399q0 -106 4 -367q-7 -37 -35 -37t-35 37q-4 577 -18 577q-16 79 -31 108q-49 81 -138 81q-70 0 -109 -99q31 -124 31 -246v-43q0 -115 4 -378
q-7 -37 -35 -37t-35 37q-4 246 -4 373v42q0 216 -69 305q-54 46 -115 46q-70 0 -111 -103q0 -195 4 -661q-8 -35 -35 -35q-35 8 -35 35l-6 800q8 35 35 35z" />
    <glyph glyph-name="n" unicode="n" horiz-adv-x="615" 
d="M191 879q111 0 211 -109q103 -155 103 -452v-8q0 -169 -17 -281q-15 -23 -34 -23q-35 8 -35 35q16 126 16 275q0 230 -66 376q-47 85 -137 111q-25 6 -45 6q-68 0 -115 -107q0 -198 4 -667q-8 -35 -35 -35q-35 8 -35 35l-6 800q8 35 35 35q29 0 35 -39h4q55 48 117 48z
" />
    <glyph glyph-name="o" unicode="o" 
d="M255 874h12q129 0 191 -117q41 -101 41 -312q0 -313 -80 -377q-76 -68 -179 -68q-130 0 -191 109q-49 98 -49 310q0 172 60 324q36 76 98 105q60 26 97 26zM70 415q0 -266 78 -319q40 -26 96 -26q96 0 146 72q39 84 39 307q0 257 -58 315q-42 39 -110 39q-71 0 -117 -54
q-30 -45 -52 -133q-22 -127 -22 -201z" />
    <glyph glyph-name="p" unicode="p" 
d="M96 886h5q144 0 273 -112q125 -124 125 -341q0 -299 -244 -405q-86 -34 -179 -34v-1q0 -26 6 -260q0 -24 -35 -33q-37 0 -37 70q-10 527 -10 860q0 236 20 236q21 20 76 20zM74 813q-4 -102 -4 -187q0 -273 6 -561q196 0 295 140q58 88 58 230q0 260 -195 351
q-77 29 -138 29h-12z" />
    <glyph glyph-name="q" unicode="q" horiz-adv-x="609" 
d="M400 876h21q82 0 82 -70q4 -61 4 -133q0 -416 -12 -858q5 0 67 39l9 2q35 -8 35 -35q0 -25 -76 -68q-56 -43 -72 -43q-35 9 -35 33q4 133 6 261h-37q-125 0 -244 80q-148 122 -148 344v5q0 279 215 396q96 47 185 47zM70 430q0 -242 180 -324q76 -31 148 -31h33
q6 270 6 598q0 133 -8 133h-23q-138 0 -240 -98q-96 -98 -96 -278z" />
    <glyph glyph-name="r" unicode="r" horiz-adv-x="561" 
d="M35 874q31 0 35 -43v-12h6q71 49 179 49q83 0 164 -90q53 -78 53 -99q-7 -37 -35 -37q-27 0 -53 66q-60 90 -134 90q-119 0 -172 -73q-6 -7 -6 -11q0 -122 6 -679q-8 -35 -35 -35q-35 8 -35 35l-8 804q8 35 35 35z" />
    <glyph glyph-name="s" unicode="s" horiz-adv-x="597" 
d="M263 874h18q154 -13 154 -37l4 -16q0 -31 -41 -35q-77 17 -123 17h-6q-199 0 -199 -144q0 -81 137 -132q122 -50 191 -98q101 -78 101 -199v-8q0 -149 -142 -201q-80 -21 -125 -21h-27q-166 0 -166 39q-2 7 -2 8q0 28 37 35q53 -12 137 -12h15q86 0 156 41q47 32 47 117
q0 119 -127 178q-30 16 -177 82q-125 66 -125 171v4q0 70 49 133q70 78 214 78z" />
    <glyph glyph-name="t" unicode="t" horiz-adv-x="591" 
d="M90 1028q35 -9 35 -33q-2 -87 -2 -135v-53q4 0 4 -2q4 2 6 2q43 0 292 8q35 -8 35 -35q0 -35 -58 -35l-279 -10v-35q0 -255 45 -482q38 -148 117 -148q64 0 165 94q10 4 14 4q35 -8 35 -35q0 -35 -123 -110q-50 -23 -91 -23h-8q-80 0 -142 105q-44 87 -65 281
q-13 125 -17 308v39h-10q-43 4 -43 35t43 35h10v73q0 140 11 140q15 12 26 12z" />
    <glyph glyph-name="u" unicode="u" horiz-adv-x="600" 
d="M80 874q28 0 35 -37q-45 -247 -45 -437q0 -276 88 -322q19 -8 27 -8h10q131 0 174 277q15 98 15 259q0 75 -12 223q9 35 36 35q41 0 41 -98q3 -73 50 -717q-8 -35 -35 -35q-37 0 -37 70q-2 0 -10 132l-4 2q-27 -99 -97 -171q-62 -47 -115 -47h-20q-54 0 -111 62
q-70 100 -70 332v12q0 209 49 448q15 20 31 20z" />
    <glyph glyph-name="v" unicode="v" horiz-adv-x="597" 
d="M464 874q28 0 35 -37q-212 -810 -218 -821q-14 -15 -29 -16q-37 0 -51 94q-33 111 -201 739q8 35 35 35q36 0 49 -86l166 -605h4q175 667 179 677q15 20 31 20z" />
    <glyph glyph-name="w" unicode="w" horiz-adv-x="884" 
d="M704 874q37 0 37 -61q33 -192 33 -392v-13q0 -332 -138 -396q-30 -12 -59 -12h-4q-136 0 -193 185v4h-2l-37 -78q-48 -70 -101 -91q-8 -7 -55 -14q-106 0 -150 117q-35 90 -35 236q0 210 53 493q15 20 31 20q28 0 35 -37q-49 -294 -49 -476q0 -227 78 -277q22 -6 35 -6
q69 0 123 123q53 148 53 333q7 45 37 45q29 0 35 -39q-6 -123 -6 -160v-6q0 -117 45 -230q39 -72 107 -72q71 0 98 104q29 89 29 239v2q0 187 -35 420q6 39 35 39z" />
    <glyph glyph-name="x" unicode="x" horiz-adv-x="603" 
d="M464 874q35 -9 35 -35q-20 -54 -166 -324l-44 -92q170 -321 195 -376v-2q-9 -35 -35 -35q-30 0 -61 78l-136 257h-6q-166 -327 -178 -337q-9 -6 -21 -8q-35 8 -35 35q21 54 169 332l28 58q-184 352 -209 406v2q8 35 35 35q30 0 63 -82l150 -283q6 0 52 98
q136 259 141 263q11 8 23 10z" />
    <glyph glyph-name="y" unicode="y" horiz-adv-x="603" 
d="M437 882q28 0 35 -37q33 -226 33 -495q0 -452 -170 -540q-37 -20 -81 -20q-99 0 -209 92l-6 19q8 35 35 35q22 -6 90 -52q50 -24 91 -24q132 0 166 279h-2q-52 -95 -119 -123q-33 -15 -60 -15h-31q-71 0 -137 85q-72 118 -72 357v45q17 380 49 380q12 6 17 6q31 0 35 -43
q-31 -208 -31 -349v-33q0 -308 107 -368q21 -10 39 -10h18q101 0 152 187q31 146 31 308q0 143 -15 281q8 35 35 35z" />
    <glyph glyph-name="z" unicode="z" horiz-adv-x="597" 
d="M250 874q186 0 216 -24q22 -21 22 -35q0 -24 -215 -392q-141 -234 -193 -347h2q66 -6 148 -6q73 0 232 6q37 -7 37 -35q0 -35 -58 -35q-94 -6 -217 -6q-175 0 -203 21q-21 15 -21 39q0 42 277 507l127 225v4q-4 2 -6 2q-68 5 -154 5q-67 0 -203 -3q-35 8 -35 35
q0 35 58 35q68 4 186 4z" />
    <glyph glyph-name="braceleft" unicode="{" horiz-adv-x="398" 
d="M244 1449q37 -7 37 -35q0 -33 -61 -43q-107 -51 -107 -195q0 -158 51 -289q4 -21 4 -27v-35q0 -50 -59 -129v-2q63 -40 63 -113v-8q-4 -49 -45 -300q-6 -44 -6 -84q0 -90 78 -117q68 -18 68 -37l2 -10q0 -29 -39 -35q-77 15 -119 55q-60 52 -60 144q0 79 47 351
q3 28 3 39q0 48 -41 58q-58 6 -58 34q-2 3 -2 5q0 21 49 57q47 55 49 97v22q0 14 -39 142q-16 88 -16 187q0 152 115 234q62 34 86 34z" />
    <glyph glyph-name="bar" unicode="|" horiz-adv-x="181" 
d="M39 1431q35 -8 35 -35l-4 -1361q-8 -35 -35 -35q-35 8 -35 35l4 1361q8 35 35 35z" />
    <glyph glyph-name="braceright" unicode="}" horiz-adv-x="359" 
d="M53 1460q122 0 169 -107q16 -38 16 -78v-20q0 -110 -109 -388q-14 -42 -16 -56q33 -37 111 -98l6 -19q0 -37 -66 -37q-66 -15 -66 -51q0 -46 60 -201q53 -134 53 -214v-6q0 -109 -96 -184q-39 -21 -72 -21q-43 4 -43 35q0 37 60 37q80 39 80 139q0 80 -89 304
q-24 72 -24 105v8q0 64 82 107v2q-64 56 -64 74q-2 2 -2 16q0 36 76 240q49 128 49 214v10q0 83 -63 109q-7 6 -48 10q-11 -2 -16 -2q-37 7 -37 35q0 32 49 37z" />
    <glyph glyph-name="asciitilde" unicode="~" 
d="M464 701q35 -8 35 -35q-16 -82 -56 -125q-35 -35 -71 -35h-9q-43 0 -191 95q-34 20 -55 20q-29 0 -53 -105q-14 -15 -29 -16q-30 0 -35 41q19 96 59 129q31 21 56 21h10q41 0 148 -70q69 -45 98 -45q33 0 62 105q15 20 31 20z" />
    <glyph glyph-name="exclamdown" unicode="&#xa1;" horiz-adv-x="190" 
d="M49 -300q-35 8 -35 35l-4 1223q8 35 35 35q35 -8 35 -35l4 -1223q-8 -35 -35 -35zM39 1047q-33 0 -39 41q8 43 43 43q39 -7 39 -39q-10 -45 -43 -45z" />
    <glyph glyph-name="cent" unicode="&#xa2;" horiz-adv-x="597" 
d="M355 979q28 0 35 -37l-8 -56l20 2h33q64 0 64 -37q-9 -35 -33 -35q-30 2 -45 2q-50 0 -50 -10l-108 -730l4 -1h6q77 0 170 33q35 -8 35 -35q0 -42 -133 -63q-25 -6 -66 -6h-24q-3 0 -11 -46q-15 -20 -31 -20q-29 0 -36 37l6 45q-183 70 -183 355q0 221 98 357
q74 84 120 105l92 37q7 101 37 101zM70 375q0 -225 119 -279h6q101 691 101 698h-2q-110 -35 -173 -154q-51 -111 -51 -265z" />
    <glyph glyph-name="sterling" unicode="&#xa3;" horiz-adv-x="700" 
d="M291 1433h2q90 0 185 -62q14 -14 15 -29q-8 -35 -35 -35q-4 0 -78 39q-50 17 -89 17q-78 0 -119 -78q-22 -76 -22 -214q0 -71 10 -295q2 -4 2 -6h2q69 0 195 -2q35 -8 35 -35q0 -28 -37 -35q-133 2 -191 2v-2q25 -341 25 -507q169 -97 252 -97l50 -4q35 0 88 15
q35 -8 35 -35q0 -45 -121 -50q-146 0 -265 74q-41 19 -45 19q-14 -74 -29 -74q-31 -39 -68 -39q-68 0 -88 113v12q0 82 70 99h20q2 0 31 -4q0 105 -25 482h-45q-43 4 -43 35t43 35h39q-10 216 -10 302q0 244 64 293q66 66 147 66zM70 123v-4q6 -47 22 -47q25 13 25 68v4
q-3 7 -33 10h-4q-9 0 -10 -31z" />
    <glyph glyph-name="currency" unicode="&#xa4;" horiz-adv-x="712" 
d="M35 1051q18 0 100 -78h3q78 76 135 76q0 2 14 2h7q86 0 164 -91q127 82 139 82q35 -9 35 -36t-82 -70l-51 -35v-2q49 -110 49 -191q0 -63 -25 -123q18 -29 93 -99q4 -1 8 -20q0 -28 -37 -35q-23 0 -98 86l-7 6q-82 -64 -141 -64q-7 -6 -37 -6h-27q-76 0 -137 39
q-71 -92 -87 -92h-4q-35 8 -35 35q0 16 74 103v2q-47 69 -47 164q0 99 55 209v2q-94 83 -94 93l-2 8q8 35 35 35zM111 702q0 -126 96 -167q33 -12 76 -12h15q76 0 135 51q45 54 45 134q0 122 -96 234q-47 39 -93 39q-84 0 -151 -142q-27 -69 -27 -137z" />
    <glyph glyph-name="yen" unicode="&#xa5;" horiz-adv-x="712" 
d="M581 1416q28 0 35 -37q0 -5 -296 -761q2 -54 2 -84h150q43 -4 43 -35t-43 -35h-148v-82q23 -2 33 -2q131 0 131 -11q11 -15 11 -26q-8 -35 -35 -35q-82 2 -123 2h-8q-1 0 -1 2q-4 -2 -6 -2q0 -44 4 -275q-9 -35 -36 -35q-35 8 -35 35q-4 213 -4 277l-23 2h-8
q-126 0 -126 12q-12 15 -12 25q8 35 35 35q75 -2 117 -2h16v66l-2 14h-154q-43 4 -43 35t43 35h154q-2 78 -2 96q-238 692 -250 733q8 35 35 35q34 0 53 -84l199 -577h6q247 641 263 667q15 12 25 12z" />
    <glyph glyph-name="brokenbar" unicode="&#xa6;" horiz-adv-x="187" 
d="M35 1449q31 0 35 -43v-556q-4 -43 -35 -43t-35 43v556q4 43 35 43zM35 663q29 0 35 -39q2 -494 2 -597q-7 -37 -35 -37q-29 0 -35 39q-2 494 -2 597q7 37 35 37z" />
    <glyph glyph-name="section" unicode="&#xa7;" horiz-adv-x="706" 
d="M341 1433h6q104 0 217 -39q14 -14 15 -29q0 -28 -37 -35q-111 33 -201 33q-176 0 -228 -121q-25 -50 -25 -148q0 -138 99 -138h29q164 15 182 15q147 0 181 -132q8 -30 8 -53v-10q0 -106 -137 -187q-141 -61 -189 -61q-113 -21 -169 -21q23 -57 78 -57q0 -2 25 -3
q15 0 172 15l19 2q126 0 168 -107q15 -45 15 -78v-10q0 -122 -167 -203q-53 -25 -182 -50q-65 -12 -146 -16q-35 8 -35 35q0 37 70 37q43 0 187 31q203 58 203 174q0 87 -66 111q-21 4 -27 4h-43q-132 -16 -170 -16q-113 0 -164 96q-29 63 -29 175v24q0 98 55 191
q21 25 43 47q-80 58 -80 185q0 247 183 318q66 21 140 21zM70 665v-16q0 -53 4 -76q156 16 228 35q215 56 215 176q0 93 -76 113q-36 4 -47 4q-232 -18 -232 -35q-37 -15 -64 -70q-28 -69 -28 -131z" />
    <glyph glyph-name="dieresis" unicode="&#xa8;" horiz-adv-x="407" 
d="M43 1384q32 0 39 -41q-8 -43 -43 -43q-39 8 -39 39q10 45 43 45zM257 1384q33 0 39 -41q-7 -43 -42 -43q-39 8 -39 39q9 45 42 45z" />
    <glyph glyph-name="copyright" unicode="&#xa9;" horiz-adv-x="820" 
d="M351 972q199 0 314 -206q53 -111 53 -201v-28q0 -76 -41 -165q-99 -172 -314 -172h-18q-114 0 -216 68q-129 100 -129 293q0 143 103 286q110 125 248 125zM70 557q0 -119 55 -187q79 -100 226 -100h6q170 0 242 109q48 71 48 164v12q0 165 -128 289q-76 58 -170 58
q-140 0 -230 -158q-49 -97 -49 -187zM390 777h43q51 -5 51 -35v-2q-10 -35 -34 -35q-19 2 -31 2h-23q-105 0 -150 -80q-18 -35 -18 -99v-6q0 -57 41 -84q24 -12 49 -12q61 0 136 26q35 -9 35 -36q0 -36 -93 -52q0 -7 -76 -8h-6q-99 0 -142 98q-14 47 -14 62v17
q0 163 131 223q63 21 101 21z" />
    <glyph glyph-name="ordfeminine" unicode="&#xaa;" horiz-adv-x="492" 
d="M189 1434h2q82 0 166 -108q9 0 14 -364q1 0 3 -119q-8 -35 -35 -35q-35 0 -35 58q-2 15 -2 51h-4q-56 -127 -163 -127t-133 181q-2 32 -2 63v23q0 111 45 250q57 127 144 127zM70 1051v-11q0 -180 68 -180q107 0 143 265q8 46 12 131v39q-53 68 -106 68q-74 0 -109 -216
q-8 -79 -8 -96z" />
    <glyph glyph-name="guillemotleft" unicode="&#xab;" horiz-adv-x="667" 
d="M530 912q28 0 36 -37q0 -20 -117 -146q0 -4 -110 -125l205 -249l2 -12q-8 -35 -35 -35q-24 0 -76 74q-176 203 -176 214q-2 7 -2 8q0 20 86 106q161 190 176 200zM257 908q36 -8 36 -35q0 -19 -92 -121l-119 -148l212 -251q6 -13 6 -18q-8 -35 -35 -35q-22 0 -80 76
q-181 209 -183 218l-2 10q0 17 84 113q134 167 160 188q10 3 13 3z" />
    <glyph glyph-name="logicalnot" unicode="&#xac;" horiz-adv-x="718" 
d="M43 672h530q43 0 43 -43v-86q-4 -43 -35 -43t-35 43v58h-503q-43 4 -43 36q0 31 43 35z" />
    <glyph glyph-name="registered" unicode="&#xae;" horiz-adv-x="823" 
d="M355 1432h17q114 0 217 -68q129 -99 129 -293q0 -143 -104 -286q-109 -125 -247 -125q-200 0 -314 207q-53 111 -53 204v24q0 76 41 166q99 171 314 171zM70 1089v-12q0 -164 129 -288q76 -59 170 -59q140 0 230 158q48 97 48 187q0 119 -54 188q-80 99 -226 99h-6
q-171 0 -242 -109q-49 -71 -49 -164zM371 1272q105 0 142 -58q8 -25 8 -37v-2q0 -88 -180 -148v-6q106 -85 135 -119q4 -10 4 -14q-8 -35 -35 -35q-20 0 -119 94q-53 43 -55 43q0 -2 -2 -2l2 -4q0 -22 6 -92q-8 -35 -35 -35q-39 0 -39 84q-4 25 -8 201q0 86 25 101
q60 29 151 29zM267 1187q-2 -46 -2 -69q0 -12 2 -39q183 47 183 102q-21 21 -81 21q-63 -4 -100 -14q0 -1 -2 -1z" />
    <glyph glyph-name="macron" unicode="&#xaf;" horiz-adv-x="600" 
d="M43 1370h407q43 -4 43 -35t-43 -35h-407q-43 4 -43 35t43 35z" />
    <glyph glyph-name="degree" unicode="&#xb0;" horiz-adv-x="489" 
d="M168 1427h29q72 0 136 -63q49 -64 49 -128q0 -103 -91 -158q-41 -18 -63 -18h-35q-56 0 -125 55q-68 64 -68 156q0 81 86 134q49 20 82 22zM70 1267q0 -97 104 -133q17 -4 25 -4h23q63 0 86 76q2 17 2 30v15q0 38 -41 78q-35 27 -78 27h-17q-45 0 -82 -31
q-22 -31 -22 -58z" />
    <glyph glyph-name="plusminus" unicode="&#xb1;" horiz-adv-x="603" 
d="M248 763q31 0 35 -43v-167h167q43 -4 43 -35t-43 -35h-167v-170q-4 -43 -35 -43t-35 43v170h-170q-43 4 -43 35t43 35h170v167q4 43 35 43zM43 230h407q43 -4 43 -35t-43 -35h-407q-43 4 -43 35t43 35z" />
    <glyph glyph-name="uni00B2" unicode="&#xb2;" horiz-adv-x="501" 
d="M172 1427h11q98 0 180 -111q19 -43 19 -74v-18q0 -90 -119 -259q-65 -81 -107 -127v-4q20 2 199 10q35 -8 35 -35q0 -37 -70 -37l-256 -12q-35 8 -35 35q0 19 59 70q224 246 224 365v6q0 80 -109 119q-14 2 -22 2h-4q-58 0 -132 -57l-10 -2q-35 8 -35 35q0 40 115 84
q31 10 57 10z" />
    <glyph glyph-name="uni00B3" unicode="&#xb3;" horiz-adv-x="498" 
d="M197 1427q140 0 168 -119q0 -3 2 -27q0 -89 -104 -172v-4q42 -3 98 -50q31 -41 31 -84q0 -142 -306 -201q-37 7 -37 35q0 35 66 41q207 51 207 127q0 59 -115 72q-45 2 -47 2l-31 -2q-35 8 -35 35q0 31 66 49q136 72 136 152q0 76 -101 76q-68 0 -160 -25q-35 8 -35 35
q0 42 125 54q0 4 72 6z" />
    <glyph glyph-name="acute" unicode="&#xb4;" horiz-adv-x="293" 
d="M144 1424q35 -8 35 -35q0 -16 -97 -154q-23 -45 -47 -45q-35 8 -35 35q0 17 111 178q17 21 33 21z" />
    <glyph glyph-name="mu" unicode="&#xb5;" horiz-adv-x="603" 
d="M41 889q31 0 35 -43v-183q0 -256 55 -461q44 -136 101 -136h8q65 0 107 127q45 157 45 380q0 87 -10 250q7 37 35 37q37 0 37 -71l45 -745q-8 -35 -35 -35q-39 0 -39 84q0 9 -4 90h-2q-3 -4 -25 -66q-50 -93 -109 -112q-26 -9 -45 -9h-12q-71 0 -130 103q-19 45 -26 51
v-4q0 -49 -2 -359q-7 -37 -35 -37q-35 8 -35 35q4 597 4 934q0 20 2 137q0 24 35 33z" />
    <glyph glyph-name="paragraph" unicode="&#xb6;" horiz-adv-x="799" 
d="M673 1459q35 -9 35 -35q0 -41 -98 -41q0 -2 -37 -4q-4 -1186 -4 -1344q-8 -35 -35 -35q-35 8 -35 35q0 142 4 1375q0 41 98 41q3 2 72 8zM382 1443h14q58 0 58 -21q5 0 6 -24v-1345q-4 -43 -35 -43t-35 43v485h-2q-27 -6 -70 -6q-85 0 -172 61q-146 127 -146 400v29
q0 132 59 242q70 121 196 158q55 21 127 21z" />
    <glyph glyph-name="cedilla" unicode="&#xb8;" horiz-adv-x="302" 
d="M51 52q29 0 35 -39q-8 -31 -8 -45q70 0 98 -66q3 -17 3 -25v-8q0 -77 -132 -117q-10 -2 -12 -2q-35 8 -35 35q0 32 72 49q37 20 37 37v2q0 27 -58 27q-19 0 -39 31q-4 18 -4 26v13q5 82 41 82h2z" />
    <glyph glyph-name="uni00B9" unicode="&#xb9;" horiz-adv-x="247" 
d="M113 1434q35 -9 35 -36l-4 -573q-8 -35 -35 -35q-35 8 -35 35q2 361 4 505h-4q-27 -19 -39 -19q-35 8 -35 35q0 25 78 70q17 15 35 18z" />
    <glyph glyph-name="ordmasculine" unicode="&#xba;" horiz-adv-x="489" 
d="M203 1434q102 0 150 -104q23 -85 23 -205q0 -257 -72 -292q-45 -43 -132 -43q-82 0 -135 80q-37 85 -37 214q0 210 80 303q51 47 123 47zM70 1083q0 -150 45 -201q27 -22 62 -22q78 0 106 53q23 68 23 214q0 203 -56 225q-18 11 -49 11q-86 0 -107 -97q-24 -78 -24 -183z
" />
    <glyph glyph-name="guillemotright" unicode="&#xbb;" horiz-adv-x="688" 
d="M300 912q22 0 80 -76q182 -208 184 -218l2 -10q0 -17 -84 -113q-134 -166 -160 -187q-10 -4 -14 -4q-35 8 -35 35q0 19 92 121l119 148l-213 252q-6 12 -6 17q8 35 35 35zM55 905q23 0 76 -75q175 -203 175 -214l2 -8q0 -19 -86 -105q-38 -48 -150 -176q-18 -27 -37 -27
q-28 0 -35 37q0 20 101 129l125 142l-205 250l-1 11q8 36 35 36z" />
    <glyph glyph-name="onequarter" unicode="&#xbc;" horiz-adv-x="1101" 
d="M113 1434q35 -9 35 -36l-4 -573q-8 -35 -35 -35q-35 8 -35 35q2 361 4 505h-4q-27 -19 -39 -19q-35 8 -35 35q0 25 78 70q17 15 35 18zM963 1443q35 -8 35 -35q0 -17 -127 -197l-804 -1199q-14 -12 -25 -12q-35 8 -35 35q0 17 127 197q51 81 803 1199q15 12 26 12z
M848 655q35 -8 35 -35l4 -374h2q18 0 86 2q37 -7 37 -35q0 -36 -59 -36q-14 -1 -66 -1v-2q2 -61 2 -96v-35q-4 -43 -35 -43t-35 43v23q0 37 -2 108q-156 -4 -162 -4q-28 0 -35 37q0 11 203 437q15 11 25 11zM714 246v-4h2q26 0 101 2q-2 135 -2 205v9h-2q-9 -10 -99 -212z
" />
    <glyph glyph-name="onehalf" unicode="&#xbd;" horiz-adv-x="1104" 
d="M113 1434q35 -9 35 -36l-4 -573q-8 -35 -35 -35q-35 8 -35 35q2 361 4 505h-4q-27 -19 -39 -19q-35 8 -35 35q0 25 78 70q17 15 35 18zM963 1443q35 -8 35 -35q0 -17 -127 -197l-804 -1199q-14 -12 -25 -12q-35 8 -35 35q0 17 127 197q51 81 803 1199q15 12 26 12z
M792 667h11q98 0 180 -111q19 -43 19 -74v-18q0 -90 -119 -259q-65 -81 -107 -127v-4q20 2 199 10q35 -8 35 -35q0 -37 -70 -37l-256 -12q-35 8 -35 35q0 19 59 70q224 246 224 365v6q0 80 -109 119q-14 2 -22 2h-4q-58 0 -132 -57l-10 -2q-35 8 -35 35q0 40 115 84
q31 10 57 10z" />
    <glyph glyph-name="threequarters" unicode="&#xbe;" horiz-adv-x="1101" 
d="M197 1427q140 0 168 -119q0 -3 2 -27q0 -89 -104 -172v-4q42 -3 98 -50q31 -41 31 -84q0 -142 -306 -201q-37 7 -37 35q0 35 66 41q207 51 207 127q0 59 -115 72q-45 2 -47 2l-31 -2q-35 8 -35 35q0 31 66 49q136 72 136 152q0 76 -101 76q-68 0 -160 -25q-35 8 -35 35
q0 42 125 54q0 4 72 6zM964 1443q35 -8 35 -35q0 -17 -127 -197l-804 -1199q-14 -12 -25 -12q-35 8 -35 35q0 17 127 197q51 81 803 1199q15 12 26 12zM839 655q35 -8 35 -35l4 -374h2q18 0 86 2q37 -7 37 -35q0 -36 -59 -36q-14 -1 -66 -1v-2q2 -61 2 -96v-35
q-4 -43 -35 -43t-35 43v23q0 37 -2 108q-156 -4 -162 -4q-28 0 -35 37q0 11 203 437q15 11 25 11zM705 246v-4h2q26 0 101 2q-2 135 -2 205v9h-2q-9 -10 -99 -212z" />
    <glyph glyph-name="questiondown" unicode="&#xbf;" horiz-adv-x="659" 
d="M554 -300q-188 0 -367 82q-187 101 -187 290q0 206 168 342q66 58 273 136q15 0 15 96v2q0 107 -17 321q8 36 35 36q41 0 41 -98q12 -178 12 -265q0 -125 -36 -144q-33 -18 -158 -65q-67 -33 -136 -84q-127 -111 -127 -278q0 -195 252 -266q70 -25 242 -37q23 0 31 -33
q0 -30 -41 -35zM466 1046q-32 0 -39 40q8 43 43 43q39 -7 39 -39q-10 -44 -43 -44z" />
    <glyph glyph-name="Agrave" unicode="&#xc0;" horiz-adv-x="715" 
d="M326 1425q73 0 123 -241q54 -209 122 -757q12 -74 45 -392q0 -31 -35 -35q-41 0 -41 98q-41 360 -68 551q-320 -10 -320 -13q-60 -383 -84 -607q-5 -20 -33 -23q-34 4 -35 43q55 467 113 764q55 321 121 513q42 99 92 99zM320 1344q-24 -35 -63 -184q-35 -121 -91 -450
q51 0 294 10v2q-58 424 -123 600q-9 22 -13 22h-4zM222 1716q25 0 92 -93q54 -63 54 -90q0 -28 -37 -35q-26 0 -39 41l-101 129q-4 10 -4 13q8 35 35 35z" />
    <glyph glyph-name="Aacute" unicode="&#xc1;" horiz-adv-x="715" 
d="M326 1425q73 0 123 -241q54 -209 122 -757q12 -74 45 -392q0 -31 -35 -35q-41 0 -41 98q-41 360 -68 551q-320 -10 -320 -13q-60 -383 -84 -607q-5 -20 -33 -23q-34 4 -35 43q55 467 113 764q55 321 121 513q42 99 92 99zM320 1344q-24 -35 -63 -184q-35 -121 -91 -450
q51 0 294 10v2q-58 424 -123 600q-9 22 -13 22h-4zM392 1712q35 -8 35 -35q0 -16 -97 -154q-23 -45 -47 -45q-35 8 -35 35q0 17 111 178q17 21 33 21z" />
    <glyph glyph-name="Acircumflex" unicode="&#xc2;" horiz-adv-x="715" 
d="M326 1425q73 0 123 -241q54 -209 122 -757q12 -74 45 -392q0 -31 -35 -35q-41 0 -41 98q-41 360 -68 551q-320 -10 -320 -13q-60 -383 -84 -607q-5 -20 -33 -23q-34 4 -35 43q55 467 113 764q55 321 121 513q42 99 92 99zM320 1344q-24 -35 -63 -184q-35 -121 -91 -450
q51 0 294 10v2q-58 424 -123 600q-9 22 -13 22h-4zM312 1701q30 0 63 -82q42 -73 42 -86q-8 -35 -35 -35q-29 0 -60 78q-8 7 -8 14h-4q-4 -2 -51 -80q-14 -12 -25 -12q-35 8 -35 35q0 13 86 154q15 14 27 14z" />
    <glyph glyph-name="Atilde" unicode="&#xc3;" horiz-adv-x="715" 
d="M326 1425q73 0 123 -241q54 -209 122 -757q12 -74 45 -392q0 -31 -35 -35q-41 0 -41 98q-41 360 -68 551q-320 -10 -320 -13q-60 -383 -84 -607q-5 -20 -33 -23q-34 4 -35 43q55 467 113 764q55 321 121 513q42 99 92 99zM320 1344q-24 -35 -63 -184q-35 -121 -91 -450
q51 0 294 10v2q-58 424 -123 600q-9 22 -13 22h-4zM207 1703q53 0 154 -99q32 -26 49 -26q37 0 56 82q14 14 30 16q29 0 35 -39q0 -26 -35 -86q-43 -43 -82 -43h-8q-50 0 -135 84q-46 41 -66 41q-28 0 -55 -107q-14 -15 -29 -16q-30 0 -35 41q34 152 121 152z" />
    <glyph glyph-name="Adieresis" unicode="&#xc4;" horiz-adv-x="715" 
d="M326 1425q73 0 123 -241q54 -209 122 -757q12 -74 45 -392q0 -31 -35 -35q-41 0 -41 98q-41 360 -68 551q-320 -10 -320 -13q-60 -383 -84 -607q-5 -20 -33 -23q-34 4 -35 43q55 467 113 764q55 321 121 513q42 99 92 99zM320 1344q-24 -35 -63 -184q-35 -121 -91 -450
q51 0 294 10v2q-58 424 -123 600q-9 22 -13 22h-4zM203 1612q32 0 39 -41q-8 -43 -43 -43q-39 8 -39 39q10 45 43 45zM417 1612q33 0 39 -41q-7 -43 -42 -43q-39 8 -39 39q9 45 42 45z" />
    <glyph glyph-name="Aring" unicode="&#xc5;" horiz-adv-x="715" 
d="M326 1425q73 0 123 -241q54 -209 122 -757q12 -74 45 -392q0 -31 -35 -35q-41 0 -41 98q-41 360 -68 551q-320 -10 -320 -13q-60 -383 -84 -607q-5 -20 -33 -23q-34 4 -35 43q55 467 113 764q55 321 121 513q42 99 92 99zM320 1344q-24 -35 -63 -184q-35 -121 -91 -450
q51 0 294 10v2q-58 424 -123 600q-9 22 -13 22h-4zM310 1703h4q92 0 131 -88q10 -21 10 -42q0 -93 -92 -129q-31 -6 -37 -6h-16q-114 0 -146 103q-2 11 -2 20v12q0 81 103 124q28 6 45 6zM232 1561q0 -40 65 -53h21q42 0 60 33q6 10 6 34q-12 58 -72 58q-62 0 -80 -55v-17z
" />
    <glyph glyph-name="AE" unicode="&#xc6;" horiz-adv-x="989" 
d="M747 1431h64q43 -4 43 -35t-43 -35h-58q-230 -7 -230 -31q-10 -117 -10 -540v-45l244 17q35 -8 35 -35q0 -39 -84 -39q-179 -13 -193 -13q0 -2 -2 -2q6 -499 17 -585q0 -16 8 -16q7 -2 18 -2h15q110 0 293 24q35 -9 35 -35q0 -39 -76 -39q-125 -20 -246 -20h-15
q-39 0 -71 10q-9 -6 -21 -8q-35 8 -35 35q4 109 8 468v144h-2l-230 -7q-11 0 -28 -84q-60 -246 -115 -527q-14 -23 -33 -23q-35 9 -35 33q23 141 119 554l76 306q106 409 174 503q21 23 44 23q32 0 55 -44q59 48 279 48zM220 712h2q200 8 221 10q0 435 -35 608h-2
q-43 -73 -147 -456q-39 -154 -39 -162z" />
    <glyph glyph-name="Ccedilla" unicode="&#xc7;" horiz-adv-x="702" 
d="M226 13q-43 15 -86 49q-140 126 -140 472v69q0 196 51 440q31 130 70 207q64 125 166 170q48 13 66 13h14q79 0 142 -48q6 -10 8 -22q-8 -35 -35 -35q-5 0 -53 23q-29 12 -68 12h-2q-96 0 -172 -136q-39 -78 -64 -180q-53 -250 -53 -450v-57q0 -366 148 -448
q28 -16 80 -22q116 0 258 92q10 4 13 4q36 -8 36 -35q0 -39 -166 -106q-72 -25 -143 -25h-1q-4 -21 -4 -32q70 0 97 -66q4 -17 4 -25v-8q0 -77 -133 -117q-10 -2 -11 -2q-35 8 -35 35q0 32 72 49q37 20 37 37v2q0 27 -59 27q-18 0 -39 31q-4 18 -4 26v13q2 25 6 43z" />
    <glyph glyph-name="Egrave" unicode="&#xc8;" horiz-adv-x="722" 
d="M513 1433q39 -6 39 -35q0 -31 -43 -35q-353 0 -425 -31q-14 -139 -14 -476v-109h2q27 0 357 17q35 -8 35 -35q0 -37 -70 -37q-301 -15 -322 -17v-98q0 -234 22 -491q0 -16 52 -16h35q121 0 400 26q35 -9 35 -36q0 -39 -80 -39q-227 -21 -359 -21q-119 0 -134 25
q-43 21 -43 862q0 494 31 494q33 52 482 52zM222 1706q25 0 92 -93q54 -63 54 -90q0 -28 -37 -35q-26 0 -39 41l-101 129q-4 10 -4 13q8 35 35 35z" />
    <glyph glyph-name="Eacute" unicode="&#xc9;" horiz-adv-x="722" 
d="M513 1433q39 -6 39 -35q0 -31 -43 -35q-353 0 -425 -31q-14 -139 -14 -476v-109h2q27 0 357 17q35 -8 35 -35q0 -37 -70 -37q-301 -15 -322 -17v-98q0 -234 22 -491q0 -16 52 -16h35q121 0 400 26q35 -9 35 -36q0 -39 -80 -39q-227 -21 -359 -21q-119 0 -134 25
q-43 21 -43 862q0 494 31 494q33 52 482 52zM392 1712q35 -8 35 -35q0 -16 -97 -154q-23 -45 -47 -45q-35 8 -35 35q0 17 111 178q17 21 33 21z" />
    <glyph glyph-name="Ecircumflex" unicode="&#xca;" horiz-adv-x="722" 
d="M513 1433q39 -6 39 -35q0 -31 -43 -35q-353 0 -425 -31q-14 -139 -14 -476v-109h2q27 0 357 17q35 -8 35 -35q0 -37 -70 -37q-301 -15 -322 -17v-98q0 -234 22 -491q0 -16 52 -16h35q121 0 400 26q35 -9 35 -36q0 -39 -80 -39q-227 -21 -359 -21q-119 0 -134 25
q-43 21 -43 862q0 494 31 494q33 52 482 52zM312 1711q30 0 63 -82q42 -73 42 -86q-8 -35 -35 -35q-29 0 -60 78q-8 7 -8 14h-4q-4 -2 -51 -80q-14 -12 -25 -12q-35 8 -35 35q0 13 86 154q15 14 27 14z" />
    <glyph glyph-name="Edieresis" unicode="&#xcb;" horiz-adv-x="722" 
d="M513 1433q39 -6 39 -35q0 -31 -43 -35q-353 0 -425 -31q-14 -139 -14 -476v-109h2q27 0 357 17q35 -8 35 -35q0 -37 -70 -37q-301 -15 -322 -17v-98q0 -234 22 -491q0 -16 52 -16h35q121 0 400 26q35 -9 35 -36q0 -39 -80 -39q-227 -21 -359 -21q-119 0 -134 25
q-43 21 -43 862q0 494 31 494q33 52 482 52zM183 1612q32 0 39 -41q-8 -43 -43 -43q-39 8 -39 39q10 45 43 45zM397 1612q33 0 39 -41q-7 -43 -42 -43q-39 8 -39 39q9 45 42 45z" />
    <glyph glyph-name="Igrave" unicode="&#xcc;" horiz-adv-x="217" 
d="M35 1433q35 -8 35 -35q0 -230 4 -1363q-8 -35 -35 -35q-35 8 -35 35q0 231 -4 1363q8 35 35 35zM-49 1706q25 0 92 -93q54 -63 54 -90q0 -28 -37 -35q-26 0 -39 41l-101 129q-4 10 -4 13q8 35 35 35z" />
    <glyph glyph-name="Iacute" unicode="&#xcd;" horiz-adv-x="217" 
d="M35 1433q35 -8 35 -35q0 -230 4 -1363q-8 -35 -35 -35q-35 8 -35 35q0 231 -4 1363q8 35 35 35zM121 1712q35 -8 35 -35q0 -16 -97 -154q-23 -45 -47 -45q-35 8 -35 35q0 17 111 178q17 21 33 21z" />
    <glyph glyph-name="Icircumflex" unicode="&#xce;" horiz-adv-x="217" 
d="M35 1433q35 -8 35 -35q0 -230 4 -1363q-8 -35 -35 -35q-35 8 -35 35q0 231 -4 1363q8 35 35 35zM41 1691q30 0 63 -82q42 -73 42 -86q-8 -35 -35 -35q-29 0 -60 78q-8 7 -8 14h-4q-4 -2 -51 -80q-14 -12 -25 -12q-35 8 -35 35q0 13 86 154q15 14 27 14z" />
    <glyph glyph-name="Idieresis" unicode="&#xcf;" horiz-adv-x="217" 
d="M35 1433q35 -8 35 -35q0 -230 4 -1363q-8 -35 -35 -35q-35 8 -35 35q0 231 -4 1363q8 35 35 35zM-68 1612q32 0 39 -41q-8 -43 -43 -43q-39 8 -39 39q10 45 43 45zM146 1612q33 0 39 -41q-7 -43 -42 -43q-39 8 -39 39q9 45 42 45z" />
    <glyph glyph-name="Eth" unicode="&#xd0;" horiz-adv-x="811" 
d="M152 1433h2q170 0 324 -125q85 -81 107 -128q119 -203 119 -492q0 -508 -289 -649q-95 -39 -154 -39h-31q-100 0 -129 51q-17 8 -23 440q-2 163 -2 182h-33q-43 4 -43 35t43 35h33q5 669 29 669q14 21 47 21zM166 1363q-10 -41 -16 -328q-2 -54 -4 -292h193q43 -4 43 -35
t-43 -35h-193q4 -595 26 -595q35 -8 64 -8h19q78 0 168 53q211 134 211 563q0 247 -96 441l-62 88q-90 87 -146 107q-51 29 -164 41z" />
    <glyph glyph-name="Ntilde" unicode="&#xd1;" horiz-adv-x="714" 
d="M57 1433q40 0 80 -136q71 -206 241 -759l113 -343q17 -41 22 -45q8 0 21 408q8 184 12 721v86q4 43 35 43t35 -43v-92q0 -629 -29 -1111q-16 -137 -35 -137q0 -8 -27 -13q-45 0 -98 160q-80 225 -328 1025q-22 62 -25 63v-2q-4 -179 -4 -265q0 -395 12 -954
q-6 -39 -35 -39q-31 0 -35 41q-12 546 -12 957q3 408 20 408q12 27 37 27zM207 1693q53 0 154 -99q32 -26 49 -26q37 0 56 82q14 14 30 16q29 0 35 -39q0 -26 -35 -86q-43 -43 -82 -43h-8q-50 0 -135 84q-46 41 -66 41q-28 0 -55 -107q-14 -15 -29 -16q-30 0 -35 41
q34 152 121 152z" />
    <glyph glyph-name="Ograve" unicode="&#xd2;" horiz-adv-x="724" 
d="M332 1433q172 0 245 -218q39 -170 39 -534q0 -215 -35 -429q-26 -117 -93 -176q-87 -76 -194 -76q-116 0 -195 101q-99 132 -99 566v2q0 334 82 571q40 115 133 164q59 29 117 29zM70 665q0 -326 63 -488q57 -107 163 -107q115 0 186 107q20 38 35 112q29 213 29 397
q0 540 -88 613q-47 64 -130 64q-102 0 -164 -105q-28 -61 -51 -160q-43 -206 -43 -433zM222 1706q25 0 92 -93q54 -63 54 -90q0 -28 -37 -35q-26 0 -39 41l-101 129q-4 10 -4 13q8 35 35 35z" />
    <glyph glyph-name="Oacute" unicode="&#xd3;" horiz-adv-x="724" 
d="M332 1433q172 0 245 -218q39 -170 39 -534q0 -215 -35 -429q-26 -117 -93 -176q-87 -76 -194 -76q-116 0 -195 101q-99 132 -99 566v2q0 334 82 571q40 115 133 164q59 29 117 29zM70 665q0 -326 63 -488q57 -107 163 -107q115 0 186 107q20 38 35 112q29 213 29 397
q0 540 -88 613q-47 64 -130 64q-102 0 -164 -105q-28 -61 -51 -160q-43 -206 -43 -433zM392 1712q35 -8 35 -35q0 -16 -97 -154q-23 -45 -47 -45q-35 8 -35 35q0 17 111 178q17 21 33 21z" />
    <glyph glyph-name="Ocircumflex" unicode="&#xd4;" horiz-adv-x="724" 
d="M332 1433q172 0 245 -218q39 -170 39 -534q0 -215 -35 -429q-26 -117 -93 -176q-87 -76 -194 -76q-116 0 -195 101q-99 132 -99 566v2q0 334 82 571q40 115 133 164q59 29 117 29zM70 665q0 -326 63 -488q57 -107 163 -107q115 0 186 107q20 38 35 112q29 213 29 397
q0 540 -88 613q-47 64 -130 64q-102 0 -164 -105q-28 -61 -51 -160q-43 -206 -43 -433zM312 1701q30 0 63 -82q42 -73 42 -86q-8 -35 -35 -35q-29 0 -60 78q-8 7 -8 14h-4q-4 -2 -51 -80q-14 -12 -25 -12q-35 8 -35 35q0 13 86 154q15 14 27 14z" />
    <glyph glyph-name="Otilde" unicode="&#xd5;" horiz-adv-x="724" 
d="M332 1433q172 0 245 -218q39 -170 39 -534q0 -215 -35 -429q-26 -117 -93 -176q-87 -76 -194 -76q-116 0 -195 101q-99 132 -99 566v2q0 334 82 571q40 115 133 164q59 29 117 29zM70 665q0 -326 63 -488q57 -107 163 -107q115 0 186 107q20 38 35 112q29 213 29 397
q0 540 -88 613q-47 64 -130 64q-102 0 -164 -105q-28 -61 -51 -160q-43 -206 -43 -433zM207 1693q53 0 154 -99q32 -26 49 -26q37 0 56 82q14 14 30 16q29 0 35 -39q0 -26 -35 -86q-43 -43 -82 -43h-8q-50 0 -135 84q-46 41 -66 41q-28 0 -55 -107q-14 -15 -29 -16
q-30 0 -35 41q34 152 121 152z" />
    <glyph glyph-name="Odieresis" unicode="&#xd6;" horiz-adv-x="724" 
d="M332 1433q172 0 245 -218q39 -170 39 -534q0 -215 -35 -429q-26 -117 -93 -176q-87 -76 -194 -76q-116 0 -195 101q-99 132 -99 566v2q0 334 82 571q40 115 133 164q59 29 117 29zM70 665q0 -326 63 -488q57 -107 163 -107q115 0 186 107q20 38 35 112q29 213 29 397
q0 540 -88 613q-47 64 -130 64q-102 0 -164 -105q-28 -61 -51 -160q-43 -206 -43 -433zM223 1612q32 0 39 -41q-8 -43 -43 -43q-39 8 -39 39q10 45 43 45zM437 1612q33 0 39 -41q-7 -43 -42 -43q-39 8 -39 39q9 45 42 45z" />
    <glyph glyph-name="multiply" unicode="&#xd7;" horiz-adv-x="603" 
d="M45 839q19 0 70 -61q123 -132 127 -132q2 0 162 171q12 6 17 6q35 -8 35 -35q0 -19 -68 -86l-97 -109q1 -4 202 -220q6 -13 6 -18q-8 -35 -35 -35q-21 0 -86 78q-134 142 -136 142q-171 -189 -195 -208l-12 -2q-35 8 -35 35q0 17 74 93l121 133q-25 29 -179 195
q-6 12 -6 18q8 35 35 35z" />
    <glyph glyph-name="Oslash" unicode="&#xd8;" horiz-adv-x="721" 
d="M332 1433q107 0 187 -95h2q16 54 45 54q28 0 35 -37l-37 -99q52 -145 52 -575q0 -215 -35 -429q-26 -117 -93 -176q-87 -76 -194 -76q-109 0 -193 96l-29 -61q-15 -12 -25 -12q-28 0 -35 37l45 119q-57 177 -57 488v2q0 334 82 571q40 115 133 164q59 29 117 29zM70 665
q0 -236 31 -371h2l383 960v2q-52 107 -158 107q-102 0 -164 -105q-28 -61 -51 -160q-43 -206 -43 -433zM135 181v-2q24 -61 89 -95q34 -14 72 -14q115 0 186 107q20 38 35 112q29 213 29 397q0 310 -27 453q-6 0 -49 -117z" />
    <glyph glyph-name="Ugrave" unicode="&#xd9;" horiz-adv-x="719" 
d="M45 1433q35 -8 35 -35q-10 -251 -10 -470v-8q0 -652 76 -750q64 -100 164 -100q127 0 191 164q45 131 45 618v6q0 211 -14 532q8 35 35 35q38 0 38 -70q11 -303 11 -491v-18q0 -599 -74 -688q-37 -86 -134 -137q-53 -21 -102 -21q-132 0 -222 138q-46 87 -53 172
q-31 183 -31 605v19q3 484 16 484q14 14 29 15zM222 1696q25 0 92 -93q54 -63 54 -90q0 -28 -37 -35q-26 0 -39 41l-101 129q-4 10 -4 13q8 35 35 35z" />
    <glyph glyph-name="Uacute" unicode="&#xda;" horiz-adv-x="719" 
d="M45 1433q35 -8 35 -35q-10 -251 -10 -470v-8q0 -652 76 -750q64 -100 164 -100q127 0 191 164q45 131 45 618v6q0 211 -14 532q8 35 35 35q38 0 38 -70q11 -303 11 -491v-18q0 -599 -74 -688q-37 -86 -134 -137q-53 -21 -102 -21q-132 0 -222 138q-46 87 -53 172
q-31 183 -31 605v19q3 484 16 484q14 14 29 15zM392 1702q35 -8 35 -35q0 -16 -97 -154q-23 -45 -47 -45q-35 8 -35 35q0 17 111 178q17 21 33 21z" />
    <glyph glyph-name="Ucircumflex" unicode="&#xdb;" horiz-adv-x="719" 
d="M45 1433q35 -8 35 -35q-10 -251 -10 -470v-8q0 -652 76 -750q64 -100 164 -100q127 0 191 164q45 131 45 618v6q0 211 -14 532q8 35 35 35q38 0 38 -70q11 -303 11 -491v-18q0 -599 -74 -688q-37 -86 -134 -137q-53 -21 -102 -21q-132 0 -222 138q-46 87 -53 172
q-31 183 -31 605v19q3 484 16 484q14 14 29 15zM312 1701q30 0 63 -82q42 -73 42 -86q-8 -35 -35 -35q-29 0 -60 78q-8 7 -8 14h-4q-4 -2 -51 -80q-14 -12 -25 -12q-35 8 -35 35q0 13 86 154q15 14 27 14z" />
    <glyph glyph-name="Udieresis" unicode="&#xdc;" horiz-adv-x="719" 
d="M45 1433q35 -8 35 -35q-10 -251 -10 -470v-8q0 -652 76 -750q64 -100 164 -100q127 0 191 164q45 131 45 618v6q0 211 -14 532q8 35 35 35q38 0 38 -70q11 -303 11 -491v-18q0 -599 -74 -688q-37 -86 -134 -137q-53 -21 -102 -21q-132 0 -222 138q-46 87 -53 172
q-31 183 -31 605v19q3 484 16 484q14 14 29 15zM203 1622q32 0 39 -41q-8 -43 -43 -43q-39 8 -39 39q10 45 43 45zM417 1622q33 0 39 -41q-7 -43 -42 -43q-39 8 -39 39q9 45 42 45z" />
    <glyph glyph-name="Yacute" unicode="&#xdd;" horiz-adv-x="712" 
d="M581 1416q28 0 35 -37q-11 -39 -296 -757l10 -587q-9 -35 -36 -35q-35 8 -35 35l-9 597q-238 688 -250 731q8 35 35 35q34 0 53 -84l199 -577h6q247 641 263 667q15 12 25 12zM382 1692q35 -8 35 -35q0 -16 -97 -154q-23 -45 -47 -45q-35 8 -35 35q0 17 111 178
q17 21 33 21z" />
    <glyph glyph-name="Thorn" unicode="&#xde;" horiz-adv-x="718" 
d="M39 1433q31 0 35 -43v-214h33q164 0 316 -103q86 -77 102 -112q91 -130 91 -360q0 -112 -58 -221q-67 -116 -215 -167q-94 -34 -201 -34h-48l-24 2v-138q-4 -43 -35 -43q-35 8 -35 35q4 1133 4 1363q8 35 35 35zM74 1106q-2 -86 -2 -127v-425q0 -95 -2 -302q27 -2 39 -2
h28q262 0 364 171q45 87 45 184q0 361 -259 464q-90 37 -186 37h-27z" />
    <glyph glyph-name="germandbls" unicode="&#xdf;" horiz-adv-x="709" 
d="M283 1433q151 0 244 -146q39 -77 39 -135v-19q0 -170 -194 -296q-31 -31 -31 -34v-5q69 -30 133 -78q74 -70 93 -117q49 -106 49 -186v-19q0 -156 -175 -281q-131 -74 -211 -88q-37 7 -37 35q0 33 64 43q289 106 289 297v7q0 108 -72 209q-45 59 -141 105q-66 24 -66 73
q0 53 113 130q115 84 115 211v8q0 95 -84 171q-60 45 -130 45q-74 0 -131 -39q-80 -115 -80 -540v-41q0 -266 35 -706q-7 -37 -35 -37q-39 0 -39 84q-31 400 -31 653v53q0 470 101 581q22 26 88 49q48 13 94 13z" />
    <glyph glyph-name="agrave" unicode="&#xe0;" 
d="M255 881q103 0 225 -146q5 0 19 -675q-8 -35 -35 -35q-35 0 -35 59q-2 19 -4 158q-5 0 -29 -72q-63 -128 -148 -158q-40 -12 -61 -12h-10q-118 0 -163 176q-14 75 -14 156q0 244 82 419q69 130 173 130zM70 328q4 -212 76 -250q17 -8 39 -8q169 0 219 451q9 113 9 187
q-92 103 -159 103q-112 0 -166 -277q-18 -118 -18 -206zM164 1148q25 0 92 -93q54 -63 54 -90q0 -28 -37 -35q-26 0 -39 41l-101 129q-4 10 -4 13q8 35 35 35z" />
    <glyph glyph-name="aacute" unicode="&#xe1;" 
d="M255 881q103 0 225 -146q5 0 19 -675q-8 -35 -35 -35q-35 0 -35 59q-2 19 -4 158q-5 0 -29 -72q-63 -128 -148 -158q-40 -12 -61 -12h-10q-118 0 -163 176q-14 75 -14 156q0 244 82 419q69 130 173 130zM70 328q4 -212 76 -250q17 -8 39 -8q169 0 219 451q9 113 9 187
q-92 103 -159 103q-112 0 -166 -277q-18 -118 -18 -206zM334 1164q35 -8 35 -35q0 -16 -97 -154q-23 -45 -47 -45q-35 8 -35 35q0 17 111 178q17 21 33 21z" />
    <glyph glyph-name="acircumflex" unicode="&#xe2;" 
d="M255 881q103 0 225 -146q5 0 19 -675q-8 -35 -35 -35q-35 0 -35 59q-2 19 -4 158q-5 0 -29 -72q-63 -128 -148 -158q-40 -12 -61 -12h-10q-118 0 -163 176q-14 75 -14 156q0 244 82 419q69 130 173 130zM70 328q4 -212 76 -250q17 -8 39 -8q169 0 219 451q9 113 9 187
q-92 103 -159 103q-112 0 -166 -277q-18 -118 -18 -206zM263 1153q30 0 63 -82q42 -73 42 -86q-8 -35 -35 -35q-29 0 -60 78q-8 7 -8 14h-4q-4 -2 -51 -80q-14 -12 -25 -12q-35 8 -35 35q0 13 86 154q15 14 27 14z" />
    <glyph glyph-name="atilde" unicode="&#xe3;" 
d="M255 881q103 0 225 -146q5 0 19 -675q-8 -35 -35 -35q-35 0 -35 59q-2 19 -4 158q-5 0 -29 -72q-63 -128 -148 -158q-40 -12 -61 -12h-10q-118 0 -163 176q-14 75 -14 156q0 244 82 419q69 130 173 130zM70 328q4 -212 76 -250q17 -8 39 -8q169 0 219 451q9 113 9 187
q-92 103 -159 103q-112 0 -166 -277q-18 -118 -18 -206zM148 1145q53 0 154 -99q32 -26 49 -26q37 0 56 82q14 14 30 16q29 0 35 -39q0 -26 -35 -86q-43 -43 -82 -43h-8q-50 0 -135 84q-46 41 -66 41q-28 0 -55 -107q-14 -15 -29 -16q-30 0 -35 41q34 152 121 152z" />
    <glyph glyph-name="adieresis" unicode="&#xe4;" 
d="M255 881q103 0 225 -146q5 0 19 -675q-8 -35 -35 -35q-35 0 -35 59q-2 19 -4 158q-5 0 -29 -72q-63 -128 -148 -158q-40 -12 -61 -12h-10q-118 0 -163 176q-14 75 -14 156q0 244 82 419q69 130 173 130zM70 328q4 -212 76 -250q17 -8 39 -8q169 0 219 451q9 113 9 187
q-92 103 -159 103q-112 0 -166 -277q-18 -118 -18 -206zM144 1064q32 0 39 -41q-8 -43 -43 -43q-39 8 -39 39q10 45 43 45zM358 1064q33 0 39 -41q-7 -43 -42 -43q-39 8 -39 39q9 45 42 45z" />
    <glyph glyph-name="aring" unicode="&#xe5;" 
d="M255 881q103 0 225 -146q5 0 19 -675q-8 -35 -35 -35q-35 0 -35 59q-2 19 -4 158q-5 0 -29 -72q-63 -128 -148 -158q-40 -12 -61 -12h-10q-118 0 -163 176q-14 75 -14 156q0 244 82 419q69 130 173 130zM70 328q4 -212 76 -250q17 -8 39 -8q169 0 219 451q9 113 9 187
q-92 103 -159 103q-112 0 -166 -277q-18 -118 -18 -206zM251 1205h4q92 0 131 -88q10 -21 10 -42q0 -93 -92 -129q-31 -6 -37 -6h-16q-114 0 -146 103q-2 11 -2 20v12q0 81 103 124q28 6 45 6zM173 1063q0 -40 65 -53h21q42 0 60 33q6 10 6 34q-12 58 -72 58q-62 0 -80 -55
v-17z" />
    <glyph glyph-name="ae" unicode="&#xe6;" horiz-adv-x="914" 
d="M218 881h14q77 0 174 -117q13 -18 13 -21h8q34 95 101 127q21 8 34 8h27q72 0 148 -102q34 -56 59 -138q11 -46 15 -92v-12q0 -47 -62 -54q-85 -15 -310 -30l-2 -19q0 -289 127 -349q18 -8 44 -8q60 0 129 84q12 6 18 6q28 0 35 -37q-21 -62 -125 -113q-30 -10 -59 -10
q-89 0 -159 86h-2v-22q-4 -43 -35 -43q-36 0 -36 59q-2 27 -2 93v4q0 10 -1 30q-8 -11 -38 -86q-29 -50 -58 -78q-53 -47 -109 -47h-8q-91 0 -137 137q-21 85 -21 173q6 435 148 544q37 27 70 27zM70 306q0 -161 59 -224q18 -12 31 -12q141 0 187 400q8 61 14 236
q-74 105 -137 105q-94 0 -140 -288q-14 -98 -14 -217zM445 523q294 17 294 29q0 60 -49 168q-37 63 -84 83q-15 4 -19 4h-20q-58 0 -107 -185q-11 -52 -15 -99z" />
    <glyph glyph-name="ccedilla" unicode="&#xe7;" horiz-adv-x="598" 
d="M176 18q-102 40 -149 165q-27 73 -27 188q0 373 267 483q77 27 154 27h14q64 0 64 -37q-9 -35 -33 -35q-30 2 -45 2q-229 -7 -308 -199q-43 -95 -43 -243q0 -299 213 -299q63 0 160 33q35 -8 35 -35q0 -41 -133 -62q-26 -6 -64 -6q-19 0 -38 2q-5 -23 -5 -34q70 0 97 -66
q4 -17 4 -25v-8q0 -77 -132 -117q-11 -2 -12 -2q-35 8 -35 35q0 32 72 49q37 20 37 37v2q0 27 -58 27q-19 0 -39 31q-4 18 -4 26v13q2 29 8 48z" />
    <glyph glyph-name="egrave" unicode="&#xe8;" horiz-adv-x="601" 
d="M224 874h18q90 0 175 -104q61 -92 80 -204l2 -24v-10q0 -39 -37 -52q-112 -20 -337 -30q-30 -1 -55 -1v-55q0 -152 70 -259q53 -65 129 -65q77 0 154 86l16 4q28 0 35 -37q0 -41 -129 -109q-33 -14 -80 -14q-126 0 -206 135q-59 123 -59 253v45q0 135 60 294
q71 147 164 147zM78 519h2q240 11 347 25q0 4 2 4q-19 95 -37 127q-64 128 -156 128h-8q-88 0 -140 -228q-10 -42 -10 -56zM164 1158q25 0 92 -93q54 -63 54 -90q0 -28 -37 -35q-26 0 -39 41l-101 129q-4 10 -4 13q8 35 35 35z" />
    <glyph glyph-name="eacute" unicode="&#xe9;" horiz-adv-x="601" 
d="M224 874h18q90 0 175 -104q61 -92 80 -204l2 -24v-10q0 -39 -37 -52q-112 -20 -337 -30q-30 -1 -55 -1v-55q0 -152 70 -259q53 -65 129 -65q77 0 154 86l16 4q28 0 35 -37q0 -41 -129 -109q-33 -14 -80 -14q-126 0 -206 135q-59 123 -59 253v45q0 135 60 294
q71 147 164 147zM78 519h2q240 11 347 25q0 4 2 4q-19 95 -37 127q-64 128 -156 128h-8q-88 0 -140 -228q-10 -42 -10 -56zM334 1184q35 -8 35 -35q0 -16 -97 -154q-23 -45 -47 -45q-35 8 -35 35q0 17 111 178q17 21 33 21z" />
    <glyph glyph-name="ecircumflex" unicode="&#xea;" horiz-adv-x="601" 
d="M224 874h18q90 0 175 -104q61 -92 80 -204l2 -24v-10q0 -39 -37 -52q-112 -20 -337 -30q-30 -1 -55 -1v-55q0 -152 70 -259q53 -65 129 -65q77 0 154 86l16 4q28 0 35 -37q0 -41 -129 -109q-33 -14 -80 -14q-126 0 -206 135q-59 123 -59 253v45q0 135 60 294
q71 147 164 147zM78 519h2q240 11 347 25q0 4 2 4q-19 95 -37 127q-64 128 -156 128h-8q-88 0 -140 -228q-10 -42 -10 -56zM253 1163q30 0 63 -82q42 -73 42 -86q-8 -35 -35 -35q-29 0 -60 78q-8 7 -8 14h-4q-4 -2 -51 -80q-14 -12 -25 -12q-35 8 -35 35q0 13 86 154
q15 14 27 14z" />
    <glyph glyph-name="edieresis" unicode="&#xeb;" horiz-adv-x="601" 
d="M224 874h18q90 0 175 -104q61 -92 80 -204l2 -24v-10q0 -39 -37 -52q-112 -20 -337 -30q-30 -1 -55 -1v-55q0 -152 70 -259q53 -65 129 -65q77 0 154 86l16 4q28 0 35 -37q0 -41 -129 -109q-33 -14 -80 -14q-126 0 -206 135q-59 123 -59 253v45q0 135 60 294
q71 147 164 147zM78 519h2q240 11 347 25q0 4 2 4q-19 95 -37 127q-64 128 -156 128h-8q-88 0 -140 -228q-10 -42 -10 -56zM144 1044q32 0 39 -41q-8 -43 -43 -43q-39 8 -39 39q10 45 43 45zM358 1044q33 0 39 -41q-7 -43 -42 -43q-39 8 -39 39q9 45 42 45z" />
    <glyph glyph-name="igrave" unicode="&#xec;" horiz-adv-x="223" 
d="M45 874q35 -9 35 -35l4 -804q-8 -35 -35 -35q-35 8 -35 35l-4 804q8 35 35 35zM-39 1188q25 0 92 -93q54 -63 54 -90q0 -28 -37 -35q-26 0 -39 41l-101 129q-4 10 -4 13q8 35 35 35z" />
    <glyph glyph-name="iacute" unicode="&#xed;" horiz-adv-x="223" 
d="M45 874q35 -9 35 -35l4 -804q-8 -35 -35 -35q-35 8 -35 35l-4 804q8 35 35 35zM131 1194q35 -8 35 -35q0 -16 -97 -154q-23 -45 -47 -45q-35 8 -35 35q0 17 111 178q17 21 33 21z" />
    <glyph glyph-name="icircumflex" unicode="&#xee;" horiz-adv-x="223" 
d="M45 874q35 -9 35 -35l4 -804q-8 -35 -35 -35q-35 8 -35 35l-4 804q8 35 35 35zM51 1163q30 0 63 -82q42 -73 42 -86q-8 -35 -35 -35q-29 0 -60 78q-8 7 -8 14h-4q-4 -2 -51 -80q-14 -12 -25 -12q-35 8 -35 35q0 13 86 154q15 14 27 14z" />
    <glyph glyph-name="idieresis" unicode="&#xef;" horiz-adv-x="223" 
d="M45 874q35 -9 35 -35l4 -804q-8 -35 -35 -35q-35 8 -35 35l-4 804q8 35 35 35zM-58 1074q32 0 39 -41q-8 -43 -43 -43q-39 8 -39 39q10 45 43 45zM156 1074q33 0 39 -41q-7 -43 -42 -43q-39 8 -39 39q9 45 42 45z" />
    <glyph glyph-name="eth" unicode="&#xf0;" horiz-adv-x="715" 
d="M64 1379q29 0 188 -162q0 -2 7 -8q91 76 102 76q4 2 6 2q35 -8 35 -35q0 -22 -67 -70l-25 -24v-4q75 -82 148 -195q166 -263 166 -499v-8q0 -192 -107 -333q-106 -119 -224 -119h-22q-128 0 -220 146q-51 103 -51 217v13q0 232 117 353q61 69 115 92q101 54 185 62
q2 4 2 6q-22 47 -140 197q-19 26 -29 26q-109 -92 -129 -92q-35 8 -35 35q0 24 80 76q21 19 39 33q-27 36 -125 123q-51 35 -51 57q8 35 35 35zM70 371v-2q0 -172 98 -258q49 -41 109 -41h10q142 0 228 180q39 100 39 208q0 177 -96 359q-107 -3 -230 -78q-69 -50 -107 -121
q-51 -86 -51 -247z" />
    <glyph glyph-name="ntilde" unicode="&#xf1;" horiz-adv-x="615" 
d="M191 879q111 0 211 -109q103 -155 103 -452v-8q0 -169 -17 -281q-15 -23 -34 -23q-35 8 -35 35q16 126 16 275q0 230 -66 376q-47 85 -137 111q-25 6 -45 6q-68 0 -115 -107q0 -198 4 -667q-8 -35 -35 -35q-35 8 -35 35l-6 800q8 35 35 35q29 0 35 -39h4q55 48 117 48z
M151 1165q53 0 154 -99q32 -26 49 -26q37 0 56 82q14 14 30 16q29 0 35 -39q0 -26 -35 -86q-43 -43 -82 -43h-8q-50 0 -135 84q-46 41 -66 41q-28 0 -55 -107q-14 -15 -29 -16q-30 0 -35 41q34 152 121 152z" />
    <glyph glyph-name="ograve" unicode="&#xf2;" 
d="M255 874h12q129 0 191 -117q41 -101 41 -312q0 -313 -80 -377q-76 -68 -179 -68q-130 0 -191 109q-49 98 -49 310q0 172 60 324q36 76 98 105q60 26 97 26zM70 415q0 -266 78 -319q40 -26 96 -26q96 0 146 72q39 84 39 307q0 257 -58 315q-42 39 -110 39q-71 0 -117 -54
q-30 -45 -52 -133q-22 -127 -22 -201zM164 1178q25 0 92 -93q54 -63 54 -90q0 -28 -37 -35q-26 0 -39 41l-101 129q-4 10 -4 13q8 35 35 35z" />
    <glyph glyph-name="oacute" unicode="&#xf3;" 
d="M255 874h12q129 0 191 -117q41 -101 41 -312q0 -313 -80 -377q-76 -68 -179 -68q-130 0 -191 109q-49 98 -49 310q0 172 60 324q36 76 98 105q60 26 97 26zM70 415q0 -266 78 -319q40 -26 96 -26q96 0 146 72q39 84 39 307q0 257 -58 315q-42 39 -110 39q-71 0 -117 -54
q-30 -45 -52 -133q-22 -127 -22 -201zM334 1184q35 -8 35 -35q0 -16 -97 -154q-23 -45 -47 -45q-35 8 -35 35q0 17 111 178q17 21 33 21z" />
    <glyph glyph-name="ocircumflex" unicode="&#xf4;" 
d="M255 874h12q129 0 191 -117q41 -101 41 -312q0 -313 -80 -377q-76 -68 -179 -68q-130 0 -191 109q-49 98 -49 310q0 172 60 324q36 76 98 105q60 26 97 26zM70 415q0 -266 78 -319q40 -26 96 -26q96 0 146 72q39 84 39 307q0 257 -58 315q-42 39 -110 39q-71 0 -117 -54
q-30 -45 -52 -133q-22 -127 -22 -201zM253 1153q30 0 63 -82q42 -73 42 -86q-8 -35 -35 -35q-29 0 -60 78q-8 7 -8 14h-4q-4 -2 -51 -80q-14 -12 -25 -12q-35 8 -35 35q0 13 86 154q15 14 27 14z" />
    <glyph glyph-name="otilde" unicode="&#xf5;" 
d="M255 874h12q129 0 191 -117q41 -101 41 -312q0 -313 -80 -377q-76 -68 -179 -68q-130 0 -191 109q-49 98 -49 310q0 172 60 324q36 76 98 105q60 26 97 26zM70 415q0 -266 78 -319q40 -26 96 -26q96 0 146 72q39 84 39 307q0 257 -58 315q-42 39 -110 39q-71 0 -117 -54
q-30 -45 -52 -133q-22 -127 -22 -201zM148 1145q53 0 154 -99q32 -26 49 -26q37 0 56 82q14 14 30 16q29 0 35 -39q0 -26 -35 -86q-43 -43 -82 -43h-8q-50 0 -135 84q-46 41 -66 41q-28 0 -55 -107q-14 -15 -29 -16q-30 0 -35 41q34 152 121 152z" />
    <glyph glyph-name="odieresis" unicode="&#xf6;" 
d="M255 874h12q129 0 191 -117q41 -101 41 -312q0 -313 -80 -377q-76 -68 -179 -68q-130 0 -191 109q-49 98 -49 310q0 172 60 324q36 76 98 105q60 26 97 26zM70 415q0 -266 78 -319q40 -26 96 -26q96 0 146 72q39 84 39 307q0 257 -58 315q-42 39 -110 39q-71 0 -117 -54
q-30 -45 -52 -133q-22 -127 -22 -201zM144 1064q32 0 39 -41q-8 -43 -43 -43q-39 8 -39 39q10 45 43 45zM358 1064q33 0 39 -41q-7 -43 -42 -43q-39 8 -39 39q9 45 42 45z" />
    <glyph glyph-name="divide" unicode="&#xf7;" horiz-adv-x="609" 
d="M43 630h407q43 -4 43 -35t-43 -35h-407q-43 4 -43 35t43 35zM243 484q32 0 39 -41q-8 -43 -43 -43q-39 8 -39 39q10 45 43 45zM243 784q32 0 39 -41q-8 -43 -43 -43q-39 8 -39 39q10 45 43 45z" />
    <glyph glyph-name="oslash" unicode="&#xf8;" horiz-adv-x="600" 
d="M255 871h8q90 0 147 -53h3q17 30 37 30q29 0 36 -38q0 -4 -26 -60q39 -103 39 -308q0 -312 -80 -376q-76 -69 -179 -69q-73 0 -131 39h-8q-24 -66 -52 -66t-35 37q0 4 39 88q-53 113 -53 306v16q0 171 60 323q36 76 98 106q60 25 97 25zM70 413q0 -140 24 -230h5l281 565
q-36 53 -123 53q-54 0 -107 -45q-51 -77 -64 -185q-15 -82 -16 -158zM137 105q13 -21 66 -34q24 -3 41 -3q96 0 146 72q39 84 39 306q0 124 -16 207h-2q-3 -2 -274 -548z" />
    <glyph glyph-name="ugrave" unicode="&#xf9;" horiz-adv-x="600" 
d="M80 874q28 0 35 -37q-45 -247 -45 -437q0 -276 88 -322q19 -8 27 -8h10q131 0 174 277q15 98 15 259q0 75 -12 223q9 35 36 35q41 0 41 -98q3 -73 50 -717q-8 -35 -35 -35q-37 0 -37 70q-2 0 -10 132l-4 2q-27 -99 -97 -171q-62 -47 -115 -47h-20q-54 0 -111 62
q-70 100 -70 332v12q0 209 49 448q15 20 31 20zM164 1178q25 0 92 -93q54 -63 54 -90q0 -28 -37 -35q-26 0 -39 41l-101 129q-4 10 -4 13q8 35 35 35z" />
    <glyph glyph-name="uacute" unicode="&#xfa;" horiz-adv-x="600" 
d="M80 874q28 0 35 -37q-45 -247 -45 -437q0 -276 88 -322q19 -8 27 -8h10q131 0 174 277q15 98 15 259q0 75 -12 223q9 35 36 35q41 0 41 -98q3 -73 50 -717q-8 -35 -35 -35q-37 0 -37 70q-2 0 -10 132l-4 2q-27 -99 -97 -171q-62 -47 -115 -47h-20q-54 0 -111 62
q-70 100 -70 332v12q0 209 49 448q15 20 31 20zM334 1184q35 -8 35 -35q0 -16 -97 -154q-23 -45 -47 -45q-35 8 -35 35q0 17 111 178q17 21 33 21z" />
    <glyph glyph-name="ucircumflex" unicode="&#xfb;" horiz-adv-x="600" 
d="M80 874q28 0 35 -37q-45 -247 -45 -437q0 -276 88 -322q19 -8 27 -8h10q131 0 174 277q15 98 15 259q0 75 -12 223q9 35 36 35q41 0 41 -98q3 -73 50 -717q-8 -35 -35 -35q-37 0 -37 70q-2 0 -10 132l-4 2q-27 -99 -97 -171q-62 -47 -115 -47h-20q-54 0 -111 62
q-70 100 -70 332v12q0 209 49 448q15 20 31 20zM253 1153q30 0 63 -82q42 -73 42 -86q-8 -35 -35 -35q-29 0 -60 78q-8 7 -8 14h-4q-4 -2 -51 -80q-14 -12 -25 -12q-35 8 -35 35q0 13 86 154q15 14 27 14z" />
    <glyph glyph-name="udieresis" unicode="&#xfc;" horiz-adv-x="600" 
d="M80 874q28 0 35 -37q-45 -247 -45 -437q0 -276 88 -322q19 -8 27 -8h10q131 0 174 277q15 98 15 259q0 75 -12 223q9 35 36 35q41 0 41 -98q3 -73 50 -717q-8 -35 -35 -35q-37 0 -37 70q-2 0 -10 132l-4 2q-27 -99 -97 -171q-62 -47 -115 -47h-20q-54 0 -111 62
q-70 100 -70 332v12q0 209 49 448q15 20 31 20zM144 1044q32 0 39 -41q-8 -43 -43 -43q-39 8 -39 39q10 45 43 45zM358 1044q33 0 39 -41q-7 -43 -42 -43q-39 8 -39 39q9 45 42 45z" />
    <glyph glyph-name="yacute" unicode="&#xfd;" horiz-adv-x="603" 
d="M437 882q28 0 35 -37q33 -226 33 -495q0 -452 -170 -540q-37 -20 -81 -20q-99 0 -209 92l-6 19q8 35 35 35q22 -6 90 -52q50 -24 91 -24q132 0 166 279h-2q-52 -95 -119 -123q-33 -15 -60 -15h-31q-71 0 -137 85q-72 118 -72 357v45q17 380 49 380q12 6 17 6q31 0 35 -43
q-31 -208 -31 -349v-33q0 -308 107 -368q21 -10 39 -10h18q101 0 152 187q31 146 31 308q0 143 -15 281q8 35 35 35zM337 1174q35 -8 35 -35q0 -16 -97 -154q-23 -45 -47 -45q-35 8 -35 35q0 17 111 178q17 21 33 21z" />
    <glyph glyph-name="thorn" unicode="&#xfe;" horiz-adv-x="603" 
d="M39 1203q31 0 35 -43v-290q4 0 4 -2q19 8 72 8h12q147 0 248 -137q89 -149 89 -355q0 -299 -195 -360q-45 -14 -99 -14q-47 0 -135 21v-218q-4 -43 -35 -43q-35 8 -35 35q4 1133 4 1363q8 35 35 35zM72 796v-599q0 -30 -2 -92q83 -25 137 -25q164 0 208 160q14 61 14 146
q0 127 -45 254q-72 165 -228 165q-50 0 -84 -9z" />
    <glyph glyph-name="ydieresis" unicode="&#xff;" horiz-adv-x="603" 
d="M437 882q28 0 35 -37q33 -226 33 -495q0 -452 -170 -540q-37 -20 -81 -20q-99 0 -209 92l-6 19q8 35 35 35q22 -6 90 -52q50 -24 91 -24q132 0 166 279h-2q-52 -95 -119 -123q-33 -15 -60 -15h-31q-71 0 -137 85q-72 118 -72 357v45q17 380 49 380q12 6 17 6q31 0 35 -43
q-31 -208 -31 -349v-33q0 -308 107 -368q21 -10 39 -10h18q101 0 152 187q31 146 31 308q0 143 -15 281q8 35 35 35zM147 1044q32 0 39 -41q-8 -43 -43 -43q-39 8 -39 39q10 45 43 45zM361 1044q33 0 39 -41q-7 -43 -42 -43q-39 8 -39 39q9 45 42 45z" />
    <glyph glyph-name="dotlessi" unicode="&#x131;" horiz-adv-x="223" 
d="M45 874q35 -9 35 -35l4 -804q-8 -35 -35 -35q-35 8 -35 35l-4 804q8 35 35 35z" />
    <glyph glyph-name="circumflex" unicode="&#x2c6;" horiz-adv-x="305" 
d="M113 1403q30 0 63 -82q42 -73 42 -86q-8 -35 -35 -35q-29 0 -60 78q-8 7 -8 14h-4q-4 -2 -51 -80q-14 -12 -25 -12q-35 8 -35 35q0 13 86 154q15 14 27 14z" />
    <glyph glyph-name="ring" unicode="&#x2da;" horiz-adv-x="404" 
d="M148 1435h4q92 0 131 -88q10 -21 10 -42q0 -93 -92 -129q-31 -6 -37 -6h-16q-114 0 -146 103q-2 11 -2 20v12q0 81 103 124q28 6 45 6zM70 1293q0 -40 65 -53h21q42 0 60 33q6 10 6 34q-12 58 -72 58q-62 0 -80 -55v-17z" />
    <glyph glyph-name="tilde" unicode="&#x2dc;" horiz-adv-x="546" 
d="M121 1425q53 0 154 -99q32 -26 49 -26q37 0 56 82q14 14 30 16q29 0 35 -39q0 -26 -35 -86q-43 -43 -82 -43h-8q-50 0 -135 84q-46 41 -66 41q-28 0 -55 -107q-14 -15 -29 -16q-30 0 -35 41q34 152 121 152z" />
    <glyph glyph-name="endash" unicode="&#x2013;" horiz-adv-x="802" 
d="M43 630h608q43 -4 43 -35t-43 -35h-608q-43 4 -43 35t43 35z" />
    <glyph glyph-name="emdash" unicode="&#x2014;" horiz-adv-x="977" 
d="M43 630h764q43 -4 43 -35t-43 -35h-764q-43 4 -43 35t43 35z" />
    <glyph glyph-name="quoteleft" unicode="&#x2018;" horiz-adv-x="175" 
d="M35 1430q29 0 35 -39q2 -141 2 -174q-7 -37 -35 -37q-29 0 -35 39q-2 153 -2 174q7 37 35 37z" />
    <glyph glyph-name="quoteright" unicode="&#x2019;" horiz-adv-x="175" 
d="M35 1430q29 0 35 -39q2 -141 2 -174q-7 -37 -35 -37q-29 0 -35 39q-2 153 -2 174q7 37 35 37z" />
    <glyph glyph-name="quotesinglbase" unicode="&#x201a;" horiz-adv-x="182" 
d="M35 130q29 0 35 -39q2 -141 2 -174q-7 -37 -35 -37q-29 0 -35 39q-2 153 -2 174q7 37 35 37z" />
    <glyph glyph-name="quotedblleft" unicode="&#x201c;" horiz-adv-x="316" 
d="M35 1430q29 0 35 -39q2 -141 2 -174q-7 -37 -35 -37q-29 0 -35 39q-2 153 -2 174q7 37 35 37zM175 1430q29 0 35 -39q2 -141 2 -174q-7 -37 -35 -37q-29 0 -35 39q-2 153 -2 174q7 37 35 37z" />
    <glyph glyph-name="quotedblright" unicode="&#x201d;" horiz-adv-x="316" 
d="M35 1430q29 0 35 -39q2 -141 2 -174q-7 -37 -35 -37q-29 0 -35 39q-2 153 -2 174q7 37 35 37zM175 1430q29 0 35 -39q2 -141 2 -174q-7 -37 -35 -37q-29 0 -35 39q-2 153 -2 174q7 37 35 37z" />
    <glyph glyph-name="quotedblbase" unicode="&#x201e;" horiz-adv-x="316" 
d="M35 130q29 0 35 -39q2 -141 2 -174q-7 -37 -35 -37q-29 0 -35 39q-2 153 -2 174q7 37 35 37zM175 130q29 0 35 -39q2 -141 2 -174q-7 -37 -35 -37q-29 0 -35 39q-2 153 -2 174q7 37 35 37z" />
    <glyph glyph-name="dagger" unicode="&#x2020;" horiz-adv-x="715" 
d="M306 1433q31 0 35 -43v-97q0 -65 2 -199h230q43 -4 43 -35t-43 -35h-230q0 -196 4 -989q-8 -35 -35 -35q-35 8 -35 35q-4 787 -4 989h-230q-43 4 -43 35t43 35h230q-2 126 -2 185v111q4 43 35 43z" />
    <glyph glyph-name="daggerdbl" unicode="&#x2021;" horiz-adv-x="721" 
d="M306 1433q31 0 35 -43v-97q0 -65 2 -199h230q43 -4 43 -35t-43 -35h-230q0 -97 2 -614h228q43 -4 43 -36q0 -31 -43 -35h-228q2 -126 2 -185v-111q-4 -43 -35 -43t-35 43v97q0 65 -2 199h-232q-43 4 -43 35q0 32 43 36h232q0 97 -2 614h-230q-43 4 -43 35t43 35h230
q-2 126 -2 185v111q4 43 35 43z" />
    <glyph glyph-name="bullet" unicode="&#x2022;" horiz-adv-x="471" 
d="M148 800h4q99 0 137 -91q9 -24 9 -45v-6q0 -106 -109 -152q-23 -6 -33 -6h-10q-82 0 -126 78q-20 36 -20 84q0 77 82 125q31 13 66 13z" />
    <glyph glyph-name="ellipsis" unicode="&#x2026;" horiz-adv-x="1001" 
d="M43 84q32 0 39 -41q-8 -43 -43 -43q-39 8 -39 39q10 45 43 45zM346 84q32 0 39 -41q-8 -43 -43 -43q-39 8 -39 39q10 45 43 45zM649 84q32 0 39 -41q-8 -43 -43 -43q-39 8 -39 39q10 45 43 45z" />
    <glyph glyph-name="guilsinglleft" unicode="&#x2039;" horiz-adv-x="393" 
d="M257 908q36 -8 36 -35q0 -19 -92 -121l-119 -148l212 -251q6 -13 6 -18q-8 -35 -35 -35q-22 0 -80 76q-181 209 -183 218l-2 10q0 17 84 113q134 167 160 188q10 3 13 3z" />
    <glyph glyph-name="guilsinglright" unicode="&#x203a;" horiz-adv-x="399" 
d="M55 905q23 0 76 -75q175 -203 175 -214l2 -8q0 -19 -86 -105q-38 -48 -150 -176q-18 -27 -37 -27q-28 0 -35 37q0 20 101 129l125 142l-205 250l-1 11q8 36 35 36z" />
    <glyph glyph-name="fraction" unicode="&#x2044;" horiz-adv-x="1013" 
d="M956 1443q35 -8 35 -35q0 -17 -127 -197l-804 -1199q-14 -12 -25 -12q-35 8 -35 35q0 17 127 197q51 81 803 1199q15 12 26 12z" />
    <glyph glyph-name="fraction" unicode="&#x2215;" horiz-adv-x="1013" 
d="M956 1443q35 -8 35 -35q0 -17 -127 -197l-804 -1199q-14 -12 -25 -12q-35 8 -35 35q0 17 127 197q51 81 803 1199q15 12 26 12z" />
    <glyph glyph-name="Euro" unicode="&#x20ac;" horiz-adv-x="718" 
d="M351 1433q113 0 252 -103q13 -15 13 -27q-8 -35 -35 -35q-12 0 -76 46q-93 49 -156 49q-166 0 -201 -310q-8 -95 -8 -160v-4q312 -19 312 -29q14 -15 14 -27q-8 -35 -35 -35q-272 19 -289 21q5 -174 14 -174q283 -17 283 -23q14 -14 15 -29q-8 -35 -35 -35l-259 15
q16 -163 55 -288q73 -215 179 -215h2q47 0 99 33l8 2q35 -8 35 -35q0 -46 -125 -70h-25q-59 0 -125 59q-75 77 -107 187q-14 24 -43 158q-10 48 -27 175h-4q-70 0 -70 37q0 29 39 35q24 -2 29 -2v2q-4 45 -8 172l-4 2h-4q-64 0 -64 37q0 28 37 35q23 -2 33 -2v4
q0 442 205 523q39 11 76 11z" />
    <glyph glyph-name="trademark" unicode="&#x2122;" horiz-adv-x="718" 
d="M43 1434h212q65 -9 65 -22q10 0 41 -105q17 -51 66 -223h4q46 242 82 330q17 18 33 18q37 0 43 -65q9 0 25 -507v-31q-6 -39 -35 -39t-35 39q-4 235 -14 372q-6 0 -41 -177q-20 -131 -37 -131q-12 -5 -17 -5q-36 0 -47 79q-63 227 -68 227v-4q4 -220 12 -361
q-8 -37 -36 -37q-39 0 -39 84q-7 290 -7 329v115q0 14 2 43h-71v-50q0 -176 2 -488q-8 -35 -35 -35q-35 8 -35 35q-2 310 -2 474v64h-68q-43 4 -43 35q0 32 43 36z" />
    <glyph glyph-name="minus" unicode="&#x2212;" horiz-adv-x="609" 
d="M43 630h407q43 -4 43 -35t-43 -35h-407q-43 4 -43 35t43 35z" />
    <glyph glyph-name="OE" unicode="&#x152;" horiz-adv-x="1107" 
d="M287 1433h2q113 0 185 -130q4 0 10 58q24 41 48 41q76 31 381 31q39 -6 39 -35q0 -31 -43 -35q-294 0 -357 -29q-14 -58 -14 -544v-43h2q17 0 300 17q36 -8 36 -35q0 -39 -84 -39q-123 -6 -254 -15q0 -313 22 -597q0 -8 68 -8q101 0 343 26q35 -9 35 -36q0 -39 -74 -39
q-192 -21 -308 -21q-97 0 -113 21q-16 12 -23 63q-4 47 -4 53v17h-6q-11 -41 -80 -105q-67 -49 -141 -49h-2q-130 0 -200 164q-55 177 -55 478q0 448 98 666q76 125 189 125zM70 638q0 -308 59 -472q47 -96 128 -96q113 0 166 133q45 139 45 552v17q0 251 -37 449
q-46 142 -144 142q-88 0 -139 -111q-78 -216 -78 -614z" />
    <glyph glyph-name="oe" unicode="&#x153;" horiz-adv-x="869" 
d="M218 874h6q103 0 158 -106q14 -37 18 -43q58 149 142 149h12q91 0 164 -129q54 -121 54 -218q0 -46 -68 -53q-196 -25 -283 -25v-26q0 -301 131 -351q24 -2 29 -2q54 0 115 82q10 6 22 8q35 -8 35 -35q0 -35 -96 -104q-36 -21 -82 -21q-114 0 -177 142h-6q-5 -40 -53 -89
q-62 -53 -136 -53q-119 0 -168 123q-35 102 -35 279q0 275 84 405q67 67 134 67zM70 398q0 -201 47 -287q33 -41 88 -41q83 0 119 82q27 101 27 297q0 252 -47 317q-31 37 -84 37q-39 0 -80 -37q-70 -114 -70 -368zM427 519h2q271 17 271 29h2l-2 4v2q0 54 -43 156
q-48 93 -109 93h-4q-65 0 -109 -230q-8 -48 -8 -54z" />
    <glyph glyph-name="IJ" unicode="&#x132;" horiz-adv-x="946" 
d="M35 1433q35 -8 35 -35q0 -230 4 -1363q-8 -35 -35 -35q-35 8 -35 35q0 231 -4 1363q8 35 35 35zM781 1433q41 0 41 -97q11 -159 11 -371q0 -486 -105 -750q-96 -215 -259 -215h-20q-70 0 -136 49q-61 46 -88 164q-8 56 -8 72v25q0 68 21 68q0 3 16 6q35 -9 35 -33
q-2 -35 -2 -57v-3q0 -77 37 -153q48 -68 131 -68h8q144 0 212 207q30 64 55 218q33 212 33 476q0 250 -18 427q9 35 36 35z" />
    <glyph glyph-name="ij" unicode="&#x133;" horiz-adv-x="537" 
d="M43 1012q32 0 39 -41q-11 -43 -43 -43q-39 8 -39 39q10 45 43 45zM45 874q35 -9 35 -35l4 -804q-8 -35 -35 -35q-35 8 -35 35l-4 804q8 35 35 35zM359 1033q32 0 39 -41q-11 -43 -43 -43q-39 8 -39 39q10 45 43 45zM355 877q35 0 35 -59q2 -33 2 -64q0 -670 -33 -739
q-35 -120 -144 -197q-54 -40 -143 -70l-31 -8q-37 7 -37 35q0 34 72 47q145 59 197 164q25 41 35 138q14 313 14 624q-2 73 -2 96q0 24 35 33z" />
    <glyph glyph-name="Ydieresis" unicode="&#x178;" horiz-adv-x="712" 
d="M581 1416q28 0 35 -37q-11 -39 -296 -757l10 -587q-9 -35 -36 -35q-35 8 -35 35l-9 597q-238 688 -250 731q8 35 35 35q34 0 53 -84l199 -577h6q247 641 263 667q15 12 25 12zM203 1592q32 0 39 -41q-8 -43 -43 -43q-39 8 -39 39q10 45 43 45zM417 1592q33 0 39 -41
q-7 -43 -42 -43q-39 8 -39 39q9 45 42 45z" />
    <glyph glyph-name="perthousand" unicode="&#x2030;" horiz-adv-x="1098" 
d="M546 1433q28 0 35 -37q-419 -1257 -466 -1382q-15 -14 -27 -14q-28 0 -35 37q419 1257 466 1383q15 13 27 13zM144 1297q89 0 110 -223q1 -17 1 -44q0 -239 -103 -287q-18 -8 -33 -8h-2q-84 0 -111 137q-6 38 -6 70q0 219 88 327q31 28 56 28zM138 1223q-68 -94 -68 -283
q9 -135 45 -135h4q34 0 57 106q9 44 9 121q0 115 -37 189zM548 700q69 0 101 -170q6 -59 6 -113v-7q0 -138 -54 -225q-40 -47 -82 -47h-2q-89 0 -113 153q-4 26 -4 56v8q0 191 80 310q31 35 68 35zM470 349q6 -140 49 -140q31 0 54 93q12 57 12 115q0 152 -41 211h-2
q-30 -24 -54 -119q-18 -85 -18 -160zM874 700q89 0 109 -223q2 -17 2 -45q0 -238 -103 -286q-18 -8 -33 -8h-2q-85 0 -112 137q-5 38 -5 70q0 219 87 327q32 28 57 28zM868 626q-68 -94 -68 -283q9 -135 45 -135h4q34 0 56 106q10 44 10 120q0 116 -37 190z" />
    <glyph glyph-name="uni2074" unicode="&#x2074;" horiz-adv-x="501" 
d="M228 1435q35 -8 35 -35l4 -374h2q18 0 86 2q37 -7 37 -35q0 -36 -59 -36q-14 -1 -66 -1v-2q2 -61 2 -96v-35q-4 -43 -35 -43t-35 43v23q0 37 -2 108q-156 -4 -162 -4q-28 0 -35 37q0 11 203 437q15 11 25 11zM94 1026v-4h2q26 0 101 2q-2 135 -2 205v9h-2
q-9 -10 -99 -212z" />
    </font>
</defs>
</svg>
