<?xml version="1.0" encoding="UTF-8"?>
<svg width="80px" height="48px" viewBox="0 0 80 48" version="1.1" xmlns="http://www.w3.org/2000/svg" xmlns:xlink="http://www.w3.org/1999/xlink">
    <!-- Generator: Sketch 52.1 (67048) - http://www.bohemiancoding.com/sketch -->
    <title>Group</title>
    <desc>Created with Sketch.</desc>
    <g id="Page-1" stroke="none" stroke-width="1" fill="none" fill-rule="evenodd">
        <g id="noun_Email_1563154" transform="translate(0.000000, -1.000000)" fill-rule="nonzero">
            <g id="Group" transform="translate(0.000000, 0.637820)">
                <path d="M0,3.97756476 L0,45.33218 C0,46.8335279 1.09560393,48.3622 2.95018892,48.3622 L76.9981161,48.3622 C79.0484772,48.3622 80,46.7113011 80,45.3021977 C80,27.8667864 80,14.790228 80,6.07252233 C80,5.82919843 80,5.13087924 80,3.97756476 C80,1.58612632 79.0448456,0.36218 76.4269017,0.36218 L3.65219841,0.36218 C0.833448347,0.36218 0,1.71945942 0,3.97756476 Z" id="Path" fill="#FFFFFF"></path>
                <path d="M3,0.36218 L77,0.36218 C77.4198,0.36218 77.8275,0.46218 78.1875,0.61218 L42.4062,32.4872 C41.1392,33.6154 38.8608,33.6154 37.5938,32.4872 L1.8125,0.61218 C2.1725,0.46208 2.5802,0.36218 3,0.36218 Z" id="Path" fill="#FF8B62"></path>
                <path d="M0.3438,1.98718 L26.5,25.2997 L0.3438,46.7684 C0.1255,46.3504 0,45.8742 0,45.3622 L0,3.36218 C0,2.85448 0.1288,2.40278 0.3438,1.98718 Z" id="Path" fill="#FF8B62"></path>
                <path d="M79.6562,1.98718 C79.8712,2.40278 80,2.85448 80,3.36218 L80,45.3622 C80,45.8742 79.8745,46.3504 79.6562,46.7684 L53.5,25.2997 L79.6562,1.98718 Z" id="Path" fill="#FF8B62"></path>
                <path d="M28,26.6435 L36.25,33.9872 C38.34,35.8482 41.66,35.8482 43.75,33.9872 L52,26.6435 L78.1875,48.1434 C77.8275,48.2935 77.4198,48.3622 77,48.3622 L3,48.3622 C2.5802,48.3622 2.1725,48.2932 1.8125,48.1434 L28,26.6435 Z" id="Path" fill="#FF8B62"></path>
            </g>
        </g>
    </g>
</svg>